<?xml version="1.0" encoding="utf-8"?>
<!-- Generator: Adobe Illustrator 16.0.0, SVG Export Plug-In . SVG Version: 6.00 Build 0)  -->
<!DOCTYPE svg PUBLIC "-//W3C//DTD SVG 1.1//EN" "http://www.w3.org/Graphics/SVG/1.1/DTD/svg11.dtd">
<svg version="1.1" id="Capa_1" xmlns="http://www.w3.org/2000/svg" xmlns:xlink="http://www.w3.org/1999/xlink" x="0px" y="0px"
	 width="455px" height="382px" viewBox="0 0 455 382" enable-background="new 0 0 455 382" xml:space="preserve">
<g>
	<path fill="#FC5563" d="M55.42,272.308c-2.476-2.38-6.163-3.703-9.379-3.703c-7.902,0-12.697,6.029-12.697,13.643
		c0,6.078,3.533,12.37,12.697,12.37c2.897,0,5.425-0.636,8.323-2.96v-6.557h-9.431v-6.237h15.805v15.595
		c-3.631,4.176-8.216,6.661-14.697,6.661c-13.856,0-19.492-9.147-19.492-18.872c0-10.416,6.48-20.039,19.492-20.039
		c4.954,0,9.908,1.903,13.696,5.658L55.42,272.308z"/>
	<path fill="#FC5563" d="M91.78,287.267c0,7.51-5.109,13.588-13.539,13.588c-8.431,0-13.488-6.078-13.488-13.588
		c0-7.455,5.164-13.586,13.438-13.586C86.462,273.681,91.78,279.812,91.78,287.267 M71.179,287.267c0,3.967,2.374,7.668,7.062,7.668
		c4.687,0,7.062-3.701,7.062-7.668c0-3.912-2.744-7.717-7.062-7.717C73.604,279.55,71.179,283.355,71.179,287.267"/>
	<path fill="#FC5563" d="M122.025,287.267c0,7.51-5.108,13.588-13.538,13.588c-8.431,0-13.487-6.078-13.487-13.588
		c0-7.455,5.164-13.586,13.436-13.586S122.025,279.812,122.025,287.267 M101.426,287.267c0,3.967,2.374,7.668,7.062,7.668
		s7.062-3.701,7.062-7.668c0-3.912-2.744-7.717-7.062-7.717C103.85,279.55,101.426,283.355,101.426,287.267"/>
	<path fill="#FC5563" d="M153.432,263.32v36.955h-6.006l-0.42-3.595c-2.006,3.118-5.216,4.175-8.38,4.175
		c-7.637,0-13.381-5.074-13.381-13.64c0-8.987,5.638-13.64,13.226-13.64c2.739,0,7.006,1.48,8.535,4.177V263.32H153.432z
		 M131.671,287.215c0,4.547,3.268,7.665,7.38,7.665c4.057,0,7.533-2.959,7.533-7.665c0-4.547-3.477-7.613-7.533-7.613
		C134.938,279.602,131.671,282.509,131.671,287.215"/>
	<path fill="#FC5563" d="M159.02,311.166v-36.956h6.006l0.426,3.597c1.999-2.907,5.477-4.179,8.426-4.179
		c8.011,0,13.329,5.975,13.329,13.64c0,7.613-4.791,13.643-13.118,13.643c-2.739,0-6.796-0.847-8.637-3.703v13.959H159.02z
		 M180.779,287.267c0-4.071-2.738-7.399-7.374-7.399s-7.375,3.328-7.375,7.399c0,4.073,3,7.402,7.375,7.402
		C177.779,294.669,180.779,291.34,180.779,287.267"/>
	<path fill="#FC5563" d="M212.559,274.209h6.165v26.065h-6.062l-0.313-3.805c-1.478,3.063-5.533,4.544-8.431,4.596
		c-7.692,0.054-13.385-4.703-13.385-13.851c0-8.987,5.954-13.692,13.544-13.64c3.477,0,6.794,1.639,8.271,4.23L212.559,274.209z
		 M196.963,287.215c0,4.969,3.421,7.93,7.693,7.93c10.113,0,10.113-15.808,0-15.808
		C200.384,279.337,196.963,282.248,196.963,287.215"/>
	<path fill="#FC5563" d="M243.277,300.275v-13.641c0-3.966-2.159-6.979-6.273-6.979c-3.946,0-6.635,3.33-6.635,7.297v13.322h-6.375
		v-26.117h5.743l0.422,3.54c2.635-2.588,5.268-3.912,8.533-3.912c6.113,0,11.011,4.602,11.011,12.795v13.694H243.277z"/>
	<path fill="#FC5563" d="M282.217,263.32v36.955h-6.006l-0.422-3.595c-2.004,3.118-5.215,4.175-8.378,4.175
		c-7.637,0-13.381-5.074-13.381-13.64c0-8.987,5.636-13.64,13.225-13.64c2.74,0,7.007,1.48,8.534,4.177V263.32H282.217z
		 M260.456,287.215c0,4.547,3.268,7.665,7.38,7.665c4.057,0,7.533-2.959,7.533-7.665c0-4.547-3.477-7.613-7.533-7.613
		C263.724,279.602,260.456,282.509,260.456,287.215"/>
	<path fill="#FC5563" d="M308.41,274.209h6.165v26.065h-6.062l-0.313-3.805c-1.477,3.063-5.532,4.544-8.43,4.596
		c-7.693,0.054-13.386-4.703-13.386-13.851c0-8.987,5.953-13.692,13.544-13.64c3.478,0,6.795,1.639,8.271,4.23L308.41,274.209z
		 M292.814,287.215c0,4.969,3.422,7.93,7.693,7.93c10.113,0,10.113-15.808,0-15.808
		C296.236,279.337,292.814,282.248,292.814,287.215"/>
	<path fill="#FC5563" d="M323.953,298.689c0,2.749-4.159,2.749-4.159,0C319.794,295.938,323.953,295.938,323.953,298.689"/>
	<path fill="#FC5563" d="M351.405,296.625c-2.635,2.645-6.056,3.913-9.482,3.913c-7.323,0-13.385-5.076-13.385-13.323
		c0-8.246,5.852-13.322,13.385-13.322c3.427,0,6.848,1.321,9.482,3.913l-1.688,1.64c-2.106-2.114-5.004-3.121-7.795-3.121
		c-5.903,0-10.856,3.859-10.856,10.891c0,7.033,4.953,10.893,10.856,10.893c2.791,0,5.638-1.112,7.744-3.228L351.405,296.625z"/>
	<path fill="#FC5563" d="M355.995,287.267c0-8.298,5.903-13.586,13.226-13.586s13.221,5.288,13.221,13.586
		c0,8.301-5.898,13.377-13.221,13.377S355.995,295.568,355.995,287.267 M379.912,287.267c0-6.767-4.795-11.154-10.691-11.154
		c-5.902,0-10.698,4.388-10.698,11.154s4.796,10.841,10.698,10.841C375.117,298.108,379.912,294.034,379.912,287.267"/>
	<path fill="#FC5563" d="M426.964,300.275v-15.649c0-5.023-3.369-8.564-8.322-8.564c-4.949,0-8.375,3.701-8.375,8.723v15.491h-2.585
		v-15.491c0-5.021-3.42-8.671-8.375-8.671c-4.953,0-8.322,3.649-8.322,8.671v15.491h-2.585v-26.117h2.427l0.051,4.335
		c1.789-3.437,5.113-4.865,8.481-4.865c3.954,0,8.113,1.799,9.643,6.45c1.578-4.281,5.635-6.45,9.641-6.45
		c6.374,0,10.907,4.495,10.907,10.998v15.649H426.964z"/>
	<path fill="#808184" d="M128.518,331.671c0,1.711-0.444,3.047-1.337,4.001c-0.543,0.604-1.192,1.076-1.948,1.409
		c-0.752,0.333-1.552,0.499-2.389,0.499c-0.784,0-1.538-0.147-2.253-0.443c-0.719-0.295-1.346-0.713-1.877-1.25
		c-0.497-0.492-0.847-1.01-1.058-1.558c-0.211-0.545-0.341-1.17-0.397-1.876c-0.051-0.702-0.079-1.802-0.079-3.294
		s0.028-2.59,0.079-3.296c0.057-0.703,0.187-1.33,0.397-1.875c0.211-0.544,0.561-1.063,1.058-1.557
		c0.531-0.539,1.158-0.955,1.872-1.251c0.71-0.295,1.464-0.444,2.258-0.444c1.449,0,2.688,0.444,3.715,1.326
		c1.023,0.883,1.664,2.056,1.911,3.517h-1.256c-0.149-0.741-0.436-1.399-0.852-1.972c-0.42-0.571-0.931-1.006-1.527-1.307
		c-0.6-0.3-1.267-0.45-1.997-0.45c-0.588,0-1.153,0.107-1.691,0.319c-0.536,0.213-1.019,0.53-1.443,0.954
		c-0.294,0.295-0.52,0.603-0.683,0.922c-0.163,0.318-0.29,0.72-0.378,1.206c-0.09,0.481-0.149,1.036-0.168,1.657
		c-0.023,0.621-0.039,1.37-0.039,2.25c0,1.312,0.029,2.31,0.081,2.995c0.056,0.685,0.172,1.267,0.35,1.744
		c0.183,0.476,0.464,0.905,0.837,1.284c0.416,0.415,0.897,0.735,1.44,0.956c0.541,0.217,1.106,0.327,1.694,0.327
		c0.665,0,1.297-0.138,1.894-0.414c0.598-0.278,1.113-0.671,1.533-1.187c0.355-0.441,0.606-0.918,0.762-1.433
		c0.158-0.516,0.233-1.134,0.233-1.853v-1.49h-4.422v-1.114h5.68V331.671z"/>
	<path fill="#808184" d="M140.977,331.832c0,0.598-0.037,1.164-0.112,1.705c-0.079,0.536-0.215,1.049-0.421,1.533
		c-0.205,0.484-0.489,0.91-0.86,1.284c-0.831,0.818-1.868,1.227-3.107,1.227c-1.247,0-2.29-0.408-3.121-1.227
		c-0.371-0.374-0.655-0.797-0.86-1.28c-0.206-0.48-0.346-0.984-0.421-1.517c-0.075-0.53-0.112-1.104-0.112-1.726
		c0-0.941,0.099-1.792,0.294-2.559c0.197-0.765,0.566-1.416,1.1-1.952c0.817-0.819,1.859-1.229,3.121-1.229
		c1.252,0,2.29,0.41,3.107,1.229c0.371,0.369,0.655,0.798,0.86,1.281c0.206,0.484,0.342,0.996,0.421,1.529
		C140.939,330.666,140.977,331.233,140.977,331.832 M139.774,331.832c0-0.866-0.06-1.599-0.186-2.204
		c-0.122-0.609-0.393-1.119-0.81-1.536c-0.616-0.636-1.388-0.954-2.304-0.954c-0.93,0-1.701,0.318-2.317,0.954
		c-0.417,0.417-0.688,0.937-0.81,1.564c-0.126,0.623-0.188,1.35-0.188,2.176c0,0.817,0.062,1.542,0.188,2.176
		c0.122,0.634,0.393,1.155,0.81,1.572c0.63,0.638,1.407,0.955,2.317,0.955c0.902,0,1.674-0.317,2.304-0.955
		c0.417-0.417,0.688-0.928,0.81-1.539C139.715,333.429,139.774,332.694,139.774,331.832"/>
	<path fill="#808184" d="M153.169,331.832c0,0.598-0.037,1.164-0.112,1.705c-0.073,0.536-0.214,1.049-0.419,1.533
		c-0.201,0.484-0.491,0.91-0.862,1.284c-0.83,0.818-1.868,1.227-3.107,1.227c-1.246,0-2.284-0.408-3.117-1.227
		c-0.369-0.374-0.659-0.797-0.858-1.28c-0.207-0.48-0.346-0.984-0.421-1.517c-0.076-0.53-0.112-1.104-0.112-1.726
		c0-0.941,0.097-1.792,0.294-2.559c0.197-0.765,0.561-1.416,1.098-1.952c0.819-0.819,1.855-1.229,3.117-1.229
		c1.258,0,2.292,0.41,3.107,1.229c0.371,0.369,0.661,0.798,0.862,1.281c0.205,0.484,0.346,0.996,0.419,1.529
		C153.132,330.666,153.169,331.233,153.169,331.832 M151.973,331.832c0-0.866-0.065-1.599-0.188-2.204
		c-0.126-0.609-0.396-1.119-0.808-1.536c-0.622-0.636-1.388-0.954-2.31-0.954c-0.924,0-1.7,0.318-2.317,0.954
		c-0.411,0.417-0.682,0.937-0.808,1.564c-0.122,0.623-0.188,1.35-0.188,2.176c0,0.817,0.065,1.542,0.188,2.176
		c0.126,0.634,0.396,1.155,0.808,1.572c0.636,0.638,1.407,0.955,2.317,0.955c0.906,0,1.674-0.317,2.31-0.955
		c0.411-0.417,0.682-0.928,0.808-1.539C151.907,333.429,151.973,332.694,151.973,331.832"/>
	<path fill="#808184" d="M165.04,337.444h-1.179V336c-0.317,0.418-0.649,0.741-0.99,0.974c-0.346,0.229-0.711,0.391-1.104,0.477
		c-0.388,0.089-0.798,0.131-1.229,0.131c-1.177,0-2.093-0.326-2.742-0.978c-0.963-0.962-1.439-2.552-1.439-4.771
		c0-2.214,0.477-3.801,1.439-4.763c0.298-0.304,0.686-0.542,1.159-0.716c0.476-0.176,1-0.262,1.583-0.262
		c0.695,0,1.314,0.112,1.85,0.335c0.539,0.225,1.03,0.639,1.473,1.245v-6.795h1.179V337.444z M163.861,331.832
		c0-1.418-0.213-2.554-0.645-3.409c-0.43-0.856-1.267-1.285-2.514-1.285c-1.238,0-2.071,0.429-2.5,1.285
		c-0.436,0.855-0.65,1.991-0.65,3.409c0,1.422,0.215,2.565,0.65,3.421c0.429,0.854,1.262,1.282,2.5,1.282
		c1.247,0,2.084-0.428,2.514-1.282C163.648,334.397,163.861,333.253,163.861,331.832"/>
	<path fill="#808184" d="M183.477,337.444h-1.178V336c-0.318,0.418-0.65,0.741-0.991,0.974c-0.346,0.229-0.711,0.391-1.104,0.477
		c-0.388,0.089-0.798,0.131-1.229,0.131c-1.177,0-2.093-0.326-2.742-0.978c-0.963-0.962-1.44-2.552-1.44-4.771
		c0-2.214,0.478-3.801,1.44-4.763c0.298-0.304,0.686-0.542,1.159-0.716c0.476-0.176,1-0.262,1.583-0.262
		c0.695,0,1.314,0.112,1.851,0.335c0.538,0.225,1.029,0.639,1.473,1.245v-6.795h1.178V337.444z M182.299,331.832
		c0-1.418-0.214-2.554-0.646-3.409c-0.429-0.856-1.267-1.285-2.514-1.285c-1.238,0-2.071,0.429-2.5,1.285
		c-0.436,0.855-0.65,1.991-0.65,3.409c0,1.422,0.215,2.565,0.65,3.421c0.429,0.854,1.262,1.282,2.5,1.282
		c1.247,0,2.085-0.428,2.514-1.282C182.085,334.397,182.299,333.253,182.299,331.832"/>
	<path fill="#808184" d="M196.286,332.092h-7.767c0,1.425,0.312,2.518,0.934,3.276c0.622,0.762,1.522,1.146,2.701,1.146
		c0.651,0,1.202-0.104,1.664-0.307c0.462-0.208,0.936-0.555,1.426-1.046l0.882,0.703c-0.594,0.599-1.194,1.033-1.807,1.308
		c-0.607,0.271-1.355,0.408-2.24,0.408c-1.026,0-1.897-0.218-2.602-0.654c-0.707-0.434-1.244-1.081-1.608-1.937
		c-0.37-0.856-0.55-1.909-0.55-3.158c0-0.909,0.101-1.719,0.307-2.428c0.201-0.707,0.497-1.306,0.878-1.788
		c0.379-0.486,0.855-0.86,1.422-1.127c0.565-0.265,1.196-0.397,1.883-0.397c0.701,0,1.327,0.122,1.869,0.363
		c0.547,0.243,1.015,0.6,1.406,1.073c0.393,0.474,0.692,1.049,0.898,1.723c0.201,0.675,0.304,1.443,0.304,2.307V332.092z
		 M195.1,331.136c-0.025-0.553-0.058-0.952-0.103-1.197c-0.048-0.247-0.142-0.552-0.285-0.915c-0.234-0.576-0.619-1.035-1.154-1.376
		c-0.533-0.34-1.117-0.511-1.743-0.511c-0.642,0-1.226,0.168-1.743,0.505c-0.524,0.339-0.906,0.798-1.155,1.382
		c-0.146,0.363-0.242,0.681-0.29,0.954c-0.051,0.271-0.084,0.66-0.106,1.158H195.1z"/>
	<path fill="#808184" d="M207.862,337.445h-1.202v-1.114c-0.466,0.47-0.953,0.796-1.457,0.978c-0.505,0.182-1.154,0.271-1.944,0.271
		c-0.537,0-1.011-0.031-1.426-0.1c-0.415-0.071-0.77-0.179-1.069-0.33c-0.295-0.153-0.561-0.35-0.794-0.592
		c-0.539-0.561-0.804-1.287-0.804-2.183c0-1.03,0.346-1.827,1.032-2.392c0.691-0.563,1.644-0.848,2.854-0.848h3.608v-1.261
		c0-0.925-0.247-1.611-0.736-2.062c-0.497-0.452-1.295-0.677-2.404-0.677c-0.784,0-1.406,0.107-1.864,0.324
		c-0.462,0.217-0.868,0.581-1.224,1.098l-0.847-0.75c0.313-0.449,0.659-0.794,1.03-1.034c0.367-0.242,0.794-0.417,1.273-0.523
		c0.478-0.105,1.024-0.16,1.637-0.16c2.893,0,4.337,1.225,4.337,3.673V337.445z M206.66,333.536v-1.444h-3.467
		c-1.901,0-2.851,0.755-2.851,2.264c0,0.739,0.233,1.292,0.705,1.646c0.472,0.355,1.21,0.533,2.211,0.533
		c0.612,0,1.136-0.054,1.575-0.164c0.444-0.109,0.845-0.341,1.206-0.697C206.456,335.285,206.66,334.572,206.66,333.536"/>
	<path fill="#808184" d="M215.924,337.445h-1.019c-0.869,0-1.533-0.261-1.991-0.779c-0.463-0.518-0.691-1.228-0.691-2.132v-13.656
		h1.179v13.637c0,0.647,0.124,1.127,0.381,1.431c0.259,0.305,0.702,0.454,1.338,0.454h0.804V337.445z"/>
	<path fill="#808184" d="M226.832,334.251c0,0.674-0.184,1.263-0.552,1.769c-0.364,0.503-0.888,0.887-1.565,1.158
		c-0.674,0.27-1.464,0.403-2.361,0.403c-1.907,0-3.42-0.535-4.537-1.604l0.818-0.817c0.869,0.918,2.093,1.374,3.673,1.374
		c1.088,0,1.921-0.19,2.501-0.572c0.578-0.384,0.868-0.954,0.868-1.711c0-0.575-0.173-1.016-0.523-1.317
		c-0.345-0.304-0.888-0.492-1.616-0.561l-1.861-0.168c-2.247-0.183-3.374-1.16-3.374-2.932c0-0.637,0.164-1.195,0.495-1.677
		c0.328-0.48,0.794-0.853,1.398-1.114c0.607-0.261,1.318-0.392,2.136-0.392c0.784,0,1.514,0.105,2.188,0.313
		c0.671,0.208,1.251,0.497,1.733,0.868l-0.79,0.798c-0.859-0.639-1.901-0.957-3.126-0.957c-0.921,0-1.626,0.189-2.117,0.569
		c-0.491,0.378-0.738,0.908-0.738,1.591c0,0.591,0.182,1.036,0.552,1.335c0.364,0.299,0.938,0.483,1.724,0.552l1.805,0.16
		c1.042,0.088,1.846,0.347,2.416,0.771C226.546,332.516,226.832,333.236,226.832,334.251"/>
	<polygon fill="#808184" points="231.916,339.025 230.34,340.616 230.34,335.864 231.916,335.864 	"/>
	<polygon fill="#808184" points="256.222,326.227 252.643,337.445 251.442,337.445 248.282,328.091 245.133,337.445 
		243.923,337.445 240.356,326.227 241.646,326.227 244.497,336.046 247.702,326.227 248.856,326.227 252.062,336.046 
		254.919,326.227 	"/>
	<path fill="#808184" d="M267.093,332.092h-7.772c0,1.425,0.312,2.518,0.936,3.276c0.626,0.762,1.522,1.146,2.701,1.146
		c0.649,0,1.206-0.104,1.662-0.307c0.464-0.208,0.941-0.555,1.432-1.046l0.882,0.703c-0.598,0.599-1.2,1.033-1.808,1.308
		c-0.606,0.271-1.354,0.408-2.239,0.408c-1.026,0-1.896-0.218-2.602-0.654c-0.712-0.434-1.244-1.081-1.613-1.937
		c-0.364-0.856-0.547-1.909-0.547-3.158c0-0.909,0.099-1.719,0.304-2.428c0.206-0.707,0.496-1.306,0.879-1.788
		c0.383-0.486,0.855-0.86,1.426-1.127c0.566-0.265,1.191-0.397,1.879-0.397c0.705,0,1.327,0.122,1.872,0.363
		c0.543,0.243,1.011,0.6,1.407,1.073c0.393,0.474,0.692,1.049,0.894,1.723c0.206,0.675,0.309,1.443,0.309,2.307V332.092z
		 M265.9,331.136c-0.023-0.553-0.056-0.952-0.097-1.197c-0.048-0.247-0.142-0.552-0.286-0.915c-0.233-0.576-0.622-1.035-1.153-1.376
		c-0.539-0.34-1.117-0.511-1.743-0.511c-0.646,0-1.226,0.168-1.749,0.505c-0.519,0.339-0.9,0.798-1.154,1.382
		c-0.146,0.363-0.239,0.681-0.289,0.954c-0.047,0.271-0.086,0.66-0.108,1.158H265.9z"/>
	<path fill="#808184" d="M274.579,337.445h-1.018c-0.87,0-1.533-0.261-1.997-0.779c-0.458-0.518-0.691-1.228-0.691-2.132v-13.656
		h1.179v13.637c0,0.647,0.13,1.127,0.387,1.431c0.259,0.305,0.701,0.454,1.337,0.454h0.804V337.445z"/>
	<path fill="#808184" d="M281.234,337.445h-1.019c-0.868,0-1.533-0.261-1.991-0.779c-0.462-0.518-0.691-1.228-0.691-2.132v-13.656
		h1.179v13.637c0,0.647,0.125,1.127,0.382,1.431c0.258,0.305,0.702,0.454,1.338,0.454h0.803V337.445z"/>
	<path fill="#808184" d="M298.166,337.444h-1.178V336c-0.318,0.418-0.65,0.741-0.991,0.974c-0.346,0.229-0.711,0.391-1.103,0.477
		c-0.388,0.089-0.799,0.131-1.229,0.131c-1.177,0-2.093-0.326-2.742-0.978c-0.963-0.962-1.439-2.552-1.439-4.771
		c0-2.214,0.477-3.801,1.439-4.763c0.299-0.304,0.688-0.542,1.159-0.716c0.476-0.176,1-0.262,1.583-0.262
		c0.695,0,1.314,0.112,1.851,0.335c0.538,0.225,1.029,0.639,1.473,1.245v-6.795h1.178V337.444z M296.988,331.832
		c0-1.418-0.214-2.554-0.646-3.409c-0.429-0.856-1.266-1.285-2.514-1.285c-1.238,0-2.07,0.429-2.5,1.285
		c-0.436,0.855-0.65,1.991-0.65,3.409c0,1.422,0.215,2.565,0.65,3.421c0.43,0.854,1.262,1.282,2.5,1.282
		c1.248,0,2.085-0.428,2.514-1.282C296.774,334.397,296.988,333.253,296.988,331.832"/>
	<path fill="#808184" d="M311.021,331.832c0,0.598-0.035,1.164-0.112,1.705c-0.077,0.536-0.214,1.049-0.42,1.533
		s-0.49,0.91-0.859,1.284c-0.831,0.818-1.869,1.227-3.107,1.227c-1.248,0-2.29-0.408-3.123-1.227
		c-0.369-0.374-0.654-0.797-0.858-1.28c-0.207-0.48-0.346-0.984-0.422-1.517c-0.075-0.53-0.111-1.104-0.111-1.726
		c0-0.941,0.097-1.792,0.294-2.559c0.197-0.765,0.565-1.416,1.098-1.952c0.819-0.819,1.861-1.229,3.123-1.229
		c1.252,0,2.288,0.41,3.107,1.229c0.369,0.369,0.653,0.798,0.859,1.281c0.206,0.484,0.343,0.996,0.42,1.529
		C310.986,330.666,311.021,331.233,311.021,331.832 M309.821,331.832c0-0.866-0.061-1.599-0.188-2.204
		c-0.122-0.609-0.393-1.119-0.808-1.536c-0.617-0.636-1.389-0.954-2.304-0.954c-0.932,0-1.703,0.318-2.319,0.954
		c-0.416,0.417-0.687,0.937-0.808,1.564c-0.126,0.623-0.188,1.35-0.188,2.176c0,0.817,0.062,1.542,0.188,2.176
		c0.121,0.634,0.392,1.155,0.808,1.572c0.632,0.638,1.407,0.955,2.319,0.955c0.9,0,1.673-0.317,2.304-0.955
		c0.415-0.417,0.686-0.928,0.808-1.539C309.761,333.429,309.821,332.694,309.821,331.832"/>
	<path fill="#808184" d="M323.468,337.445h-1.178v-6.955c0-1.082-0.267-1.912-0.795-2.49c-0.527-0.574-1.29-0.862-2.285-0.862
		c-0.669,0-1.233,0.131-1.705,0.392c-0.474,0.262-0.831,0.645-1.084,1.148c-0.249,0.503-0.371,1.107-0.371,1.812v6.955h-1.181
		v-11.219h1.181v1.33c0.839-0.976,1.937-1.465,3.295-1.465c1.253,0,2.244,0.356,2.969,1.068c0.767,0.735,1.154,1.774,1.154,3.115
		V337.445z"/>
	<path fill="#808184" d="M336.142,332.092h-7.771c0,1.425,0.312,2.518,0.934,3.276c0.626,0.762,1.522,1.146,2.701,1.146
		c0.65,0,1.206-0.104,1.664-0.307c0.462-0.208,0.939-0.555,1.43-1.046l0.884,0.703c-0.6,0.599-1.2,1.033-1.81,1.308
		c-0.606,0.271-1.354,0.408-2.237,0.408c-1.028,0-1.897-0.218-2.604-0.654c-0.711-0.434-1.242-1.081-1.613-1.937
		c-0.365-0.856-0.547-1.909-0.547-3.158c0-0.909,0.099-1.719,0.305-2.428c0.206-0.707,0.496-1.306,0.878-1.788
		c0.383-0.486,0.855-0.86,1.426-1.127c0.566-0.265,1.191-0.397,1.879-0.397c0.706,0,1.327,0.122,1.874,0.363
		c0.542,0.243,1.01,0.6,1.407,1.073c0.391,0.474,0.69,1.049,0.892,1.723c0.206,0.675,0.309,1.443,0.309,2.307V332.092z
		 M334.951,331.136c-0.025-0.553-0.058-0.952-0.099-1.197c-0.046-0.247-0.141-0.552-0.285-0.915
		c-0.232-0.576-0.623-1.035-1.154-1.376c-0.537-0.34-1.117-0.511-1.743-0.511c-0.646,0-1.225,0.168-1.749,0.505
		c-0.518,0.339-0.9,0.798-1.153,1.382c-0.146,0.363-0.238,0.681-0.29,0.954c-0.046,0.271-0.084,0.66-0.106,1.158H334.951z"/>
	<path fill="#FC5563" d="M128.194,143.99c0,15.745,3.429,30.697,9.568,44.162c2.479,4.786,5.331,9.394,8.552,13.771
		c-10.922-16.646-17.287-36.556-17.287-57.933c0-58.265,47.233-105.663,105.296-105.663c4.765,0,9.454,0.326,14.056,0.946
		c-0.755-0.403-1.532-0.771-2.311-1.121c-3.859-0.429-7.777-0.657-11.745-0.657C175.806,37.494,128.194,85.269,128.194,143.99"/>
	<path fill="#FC5563" d="M132.342,148.147c0,21.144,6.172,40.867,16.803,57.454c1.591,1.968,3.254,3.889,4.995,5.753
		c-13.162-17.639-20.968-39.524-20.968-63.207c0-58.26,47.234-105.66,105.294-105.66c5.644,0,11.177,0.453,16.578,1.314
		c-0.415-0.356-0.845-0.699-1.275-1.036c-4.999-0.726-10.106-1.111-15.303-1.111C179.948,41.654,132.342,89.428,132.342,148.147"/>
	<path fill="#FC5563" d="M136.49,152.306c0,22.153,6.777,42.746,18.357,59.802c0.523,0.555,1.048,1.099,1.584,1.64
		c0.649,0.654,1.312,1.295,1.978,1.93c-13.236-17.666-21.092-39.613-21.092-63.371c0-58.261,47.233-105.66,105.292-105.66
		c5.664,0,11.221,0.458,16.644,1.326c-0.288-0.332-0.582-0.66-0.879-0.98c-5.142-0.771-10.407-1.178-15.765-1.178
		C184.096,45.813,136.49,93.588,136.49,152.306"/>
	<path fill="#FC5563" d="M140.633,156.468c0,22.115,6.756,42.672,18.3,59.714c0.923,0.872,1.861,1.717,2.813,2.556
		c-12.747-17.477-20.282-39.005-20.282-62.27c0-58.261,47.233-105.661,105.296-105.661c5.271,0,10.452,0.398,15.519,1.15
		c-0.206-0.315-0.425-0.62-0.644-0.933c-4.86-0.687-9.829-1.05-14.875-1.05C188.244,49.974,140.633,97.75,140.633,156.468"/>
	<path fill="#FC5563" d="M144.778,160.625c0,21.652,6.48,41.812,17.584,58.639c0.772,0.665,1.547,1.319,2.332,1.958
		c-12.021-17.166-19.086-38.064-19.086-60.597c0-58.259,47.234-105.66,105.294-105.66c4.609,0,9.153,0.304,13.608,0.883
		c-0.147-0.301-0.299-0.602-0.457-0.897c-4.312-0.538-8.7-0.816-13.151-0.816C192.387,54.135,144.778,101.907,144.778,160.625"/>
	<path fill="#FC5563" d="M148.926,164.786c0,20.985,6.083,40.572,16.568,57.081c0.663,0.53,1.335,1.051,2.01,1.562
		c-11.206-16.789-17.749-36.962-17.749-58.644c0-58.263,47.232-105.66,105.29-105.66c3.768,0,7.482,0.203,11.146,0.593
		c-0.106-0.295-0.214-0.586-0.332-0.875c-3.557-0.364-7.161-0.552-10.813-0.552C196.532,58.293,148.926,106.069,148.926,164.786"/>
	<path fill="#FC5563" d="M153.069,168.948c0,20.202,5.638,39.11,15.41,55.223c0.589,0.432,1.183,0.857,1.776,1.277
		c-10.352-16.351-16.356-35.735-16.356-56.5c0-58.262,47.234-105.663,105.295-105.663c2.763,0,5.499,0.11,8.207,0.322
		c-0.069-0.287-0.15-0.569-0.229-0.851c-2.636-0.201-5.297-0.304-7.978-0.304C200.68,62.452,153.069,110.227,153.069,168.948"/>
	<path fill="#FC5563" d="M157.217,173.107c0,19.346,5.17,37.501,14.192,53.15c0.524,0.366,1.057,0.716,1.59,1.066
		c-9.49-15.859-14.954-34.409-14.954-54.217c0-58.262,47.236-105.659,105.296-105.659c1.629,0,3.247,0.042,4.857,0.114
		c-0.042-0.281-0.096-0.562-0.144-0.837c-1.562-0.068-3.135-0.11-4.714-0.11C204.823,66.615,157.217,114.386,157.217,173.107"/>
	<path fill="#FC5563" d="M161.359,177.267c0,18.43,4.689,35.776,12.938,50.914c0.478,0.303,0.967,0.599,1.452,0.899
		c-8.627-15.316-13.56-32.997-13.56-51.813c0-58.261,47.234-105.663,105.294-105.663c0.365,0,0.73,0.012,1.099,0.017
		c-0.013-0.281-0.036-0.556-0.052-0.834c-0.349-0.002-0.696-0.015-1.047-0.015C208.971,70.771,161.359,118.547,161.359,177.267"/>
	<path fill="#FC5563" d="M170.461,149.251c0.721-1.412,1.473-2.801,2.284-4.15c14.457-39.502,51.787-68.009,95.802-69.288
		c0.014-0.277,0.027-0.554,0.037-0.833C222.565,76.289,183.791,107.136,170.461,149.251"/>
	<path fill="#FC5563" d="M178.527,230.736c-3.521-6.671-6.354-13.76-8.396-21.176c-0.693-1.398-1.34-2.823-1.936-4.271
		c1.984,8.672,5.028,16.944,8.986,24.67C177.626,230.224,178.079,230.475,178.527,230.736"/>
	<path fill="#FC5563" d="M181.346,232.294c-2.089-4.242-3.907-8.638-5.426-13.172c-0.558-0.768-1.094-1.543-1.615-2.332
		c1.564,5.12,3.503,10.074,5.785,14.837C180.504,231.854,180.926,232.07,181.346,232.294"/>
	<path fill="#FC5563" d="M185.482,129.696c0.714-0.644,1.438-1.274,2.179-1.886c17.494-26.776,46.765-45.136,80.366-47.597
		c0.052-0.281,0.108-0.561,0.151-0.842C233.254,81.861,202.948,101.387,185.482,129.696"/>
	<path fill="#FC5563" d="M184.208,233.76c-1.32-2.874-2.508-5.822-3.572-8.831c-0.487-0.534-0.964-1.075-1.436-1.627
		c1.116,3.372,2.397,6.669,3.835,9.883C183.421,233.383,183.817,233.57,184.208,233.76"/>
	<path fill="#FC5563" d="M200.016,119.747c0.645-0.329,1.29-0.646,1.948-0.951c16.528-18.274,39.336-30.728,64.966-33.905
		c0.086-0.288,0.163-0.576,0.242-0.865C240.502,87.242,216.845,100.425,200.016,119.747"/>
	<path fill="#FC5563" d="M187.122,235.141c-0.837-1.979-1.614-3.99-2.333-6.028c-0.443-0.407-0.877-0.825-1.313-1.246
		c0.772,2.297,1.623,4.555,2.546,6.781C186.387,234.818,186.757,234.975,187.122,235.141"/>
	<path fill="#FC5563" d="M214.872,114.33c13.962-12.237,31.158-20.846,50.113-24.34c0.143-0.306,0.276-0.615,0.413-0.926
		c-19.858,3.55-37.818,12.666-52.231,25.674C213.732,114.587,214.302,114.463,214.872,114.33"/>
	<path fill="#FC5563" d="M226.271,112.679c10.501-7.693,22.466-13.488,35.395-16.868c0.233-0.34,0.46-0.685,0.688-1.032
		c-13.818,3.481-26.571,9.688-37.65,18.02C225.225,112.754,225.747,112.708,226.271,112.679"/>
	<path fill="#FC5563" d="M190.107,236.441c-0.518-1.333-1.012-2.681-1.478-4.037c-0.402-0.323-0.807-0.644-1.199-0.97
		c0.509,1.541,1.051,3.067,1.626,4.576C189.404,236.16,189.758,236.296,190.107,236.441"/>
	<path fill="#FC5563" d="M238.108,111.701c5.215-3.161,10.731-5.878,16.487-8.105c0.587-0.493,1.152-1.004,1.709-1.532
		c-7.209,2.624-14.057,6.008-20.446,10.058C236.616,112.006,237.361,111.862,238.108,111.701"/>
	<path fill="#FC5563" d="M193.16,237.653c-0.302-0.84-0.592-1.69-0.869-2.542c-0.379-0.259-0.755-0.515-1.126-0.786
		c0.31,0.989,0.639,1.972,0.981,2.952C192.482,237.407,192.824,237.526,193.16,237.653"/>
	<path fill="#FC5563" d="M196.277,238.781c-0.148-0.46-0.295-0.921-0.438-1.384c-0.355-0.213-0.71-0.427-1.058-0.647
		c0.169,0.57,0.338,1.136,0.515,1.701C195.622,238.566,195.951,238.667,196.277,238.781"/>
	<path fill="#FC5563" d="M199.465,239.814c-0.04-0.149-0.089-0.3-0.132-0.448c-0.336-0.18-0.67-0.368-1.003-0.55
		c0.062,0.236,0.124,0.476,0.189,0.713C198.833,239.628,199.151,239.719,199.465,239.814"/>
	<path fill="#FC5563" d="M305.461,120.461c-11.891-5.507-24.955-8.877-38.71-9.603c-1.374,0.184-2.738,0.415-4.084,0.702
		c16.529,0.238,32.157,4.317,46.024,11.391C307.648,122.092,306.578,121.253,305.461,120.461"/>
	<path fill="#FC5563" d="M313.468,127.437c-0.598-0.629-1.206-1.25-1.837-1.856c-14.016-6.856-29.747-10.711-46.361-10.711
		c-5.224,0-10.36,0.387-15.389,1.123c-0.782,0.388-1.557,0.788-2.32,1.211c5.76-0.985,11.676-1.503,17.709-1.503
		C282.626,115.7,299.017,119.94,313.468,127.437"/>
	<path fill="#FC5563" d="M316.617,131.089c-0.416-0.529-0.841-1.05-1.281-1.565c-13.902-6.725-29.482-10.495-45.922-10.495
		c-10.85,0-21.322,1.645-31.19,4.699c-0.512,0.44-1.013,0.893-1.507,1.356c10.298-3.384,21.287-5.224,32.697-5.224
		C286.38,119.86,302.409,123.91,316.617,131.089"/>
	<path fill="#FC5563" d="M319.019,134.385c-0.308-0.459-0.63-0.915-0.953-1.366c-13.543-6.305-28.62-9.831-44.505-9.831
		c-15.487,0-30.212,3.348-43.491,9.361c-0.261,0.347-0.514,0.699-0.766,1.053c-0.069,0.106-0.14,0.216-0.21,0.319
		c13.515-6.35,28.584-9.901,44.467-9.901C289.832,124.021,305.251,127.743,319.019,134.385"/>
	<path fill="#FC5563" d="M320.968,137.514c-0.239-0.415-0.479-0.823-0.729-1.228c-13.028-5.741-27.415-8.941-42.532-8.941
		c-19.059,0-36.958,5.075-52.431,13.935c-0.148,0.398-0.296,0.805-0.432,1.21c15.548-9.093,33.606-14.31,52.862-14.31
		C293.117,128.181,307.762,131.516,320.968,137.514"/>
	<path fill="#FC5563" d="M322.604,140.575c-0.19-0.379-0.383-0.759-0.58-1.134c-12.399-5.11-25.96-7.934-40.172-7.934
		c-21.579,0-41.67,6.505-58.443,17.652c-0.039,0.352-0.071,0.708-0.104,1.062c16.753-11.288,36.897-17.881,58.548-17.881
		C296.293,132.341,310.065,135.272,322.604,140.575"/>
	<path fill="#FC5563" d="M323.991,143.621c-0.148-0.356-0.3-0.713-0.458-1.067c-11.673-4.445-24.325-6.887-37.536-6.887
		c-23.399,0-45.053,7.646-62.618,20.574c0.031,0.316,0.062,0.638,0.104,0.951c17.496-12.995,39.125-20.692,62.515-20.692
		C299.386,136.5,312.2,139.025,323.991,143.621"/>
	<path fill="#FC5563" d="M325.173,146.678c-0.116-0.337-0.247-0.674-0.373-1.015c-10.865-3.777-22.526-5.837-34.657-5.837
		c-24.698,0-47.457,8.514-65.509,22.772c0.085,0.285,0.165,0.574,0.258,0.855c17.951-14.266,40.627-22.794,65.251-22.794
		C302.421,140.659,314.211,142.783,325.173,146.678"/>
	<path fill="#FC5563" d="M326.15,149.769c-0.093-0.321-0.178-0.645-0.274-0.965c-9.984-3.128-20.592-4.813-31.588-4.813
		c-25.564,0-49.049,9.118-67.387,24.284c0.127,0.251,0.263,0.499,0.397,0.748c18.217-15.112,41.566-24.2,66.989-24.2
		C305.391,144.822,316.096,146.558,326.15,149.769"/>
	<path fill="#FC5563" d="M326.96,152.922c-0.066-0.309-0.145-0.616-0.22-0.923c-9.016-2.507-18.507-3.852-28.308-3.852
		c-26.031,0-49.898,9.46-68.38,25.128c0.168,0.219,0.336,0.438,0.513,0.653c18.341-15.554,42.027-24.949,67.867-24.949
		C308.319,148.979,317.883,150.355,326.96,152.922"/>
	<path fill="#FC5563" d="M327.576,156.157c-0.047-0.298-0.089-0.596-0.143-0.892c-7.978-1.929-16.297-2.959-24.855-2.959
		c-26.119,0-50.065,9.528-68.575,25.294c0.204,0.188,0.403,0.38,0.619,0.562c18.353-15.6,42.077-25.024,67.956-25.024
		C311.191,153.139,319.562,154.191,327.576,156.157"/>
	<path fill="#FC5563" d="M328.01,159.472c-0.027-0.294-0.06-0.579-0.094-0.87c-6.851-1.4-13.935-2.134-21.19-2.134
		c-25.846,0-49.555,9.319-67.981,24.785c0.244,0.155,0.49,0.311,0.741,0.46c18.252-15.237,41.695-24.414,67.24-24.414
		C314.017,157.3,321.136,158.049,328.01,159.472"/>
	<path fill="#FC5563" d="M328.249,162.905c-0.015-0.284-0.02-0.565-0.036-0.848c-5.645-0.935-11.438-1.432-17.343-1.432
		c-25.133,0-48.249,8.818-66.447,23.526c0.298,0.12,0.595,0.236,0.895,0.344c18-14.408,40.79-23.037,65.553-23.037
		C316.789,161.458,322.595,161.959,328.249,162.905"/>
	<path fill="#FC5563" d="M328.268,166.452c0.006-0.278,0.01-0.557,0.013-0.834c-4.345-0.546-8.772-0.831-13.264-0.831
		c-1.166,0-2.326,0.023-3.479,0.065c0.521,0.242,1.033,0.505,1.537,0.791c0.648-0.015,1.292-0.025,1.942-0.025
		C319.506,165.618,323.926,165.903,328.268,166.452"/>
	<path fill="#FC5563" d="M252.614,186.228c9.965-7.381,21.264-13.048,33.464-16.549c0.395-0.421,0.808-0.822,1.234-1.203
		c-13.138,3.567-25.276,9.606-35.877,17.591C251.83,186.128,252.223,186.182,252.614,186.228"/>
	<path fill="#FC5563" d="M263.635,185.704c4.907-3.069,10.084-5.745,15.485-7.979c0.54-0.493,1.063-1.005,1.572-1.535
		c-6.771,2.651-13.202,5.983-19.218,9.907C262.201,185.992,262.92,185.861,263.635,185.704"/>
	<path fill="#FC5563" d="M328.041,170.16c0.026-0.276,0.059-0.553,0.079-0.83c-2.95-0.248-5.942-0.382-8.958-0.382
		c-0.618,0-1.231,0.011-1.848,0.022c0.231,0.263,0.464,0.54,0.691,0.823c0.383-0.005,0.765-0.016,1.156-0.016
		C322.149,169.778,325.114,169.91,328.041,170.16"/>
	<path fill="#FC5563" d="M327.544,174.032c0.046-0.274,0.082-0.552,0.126-0.826c-1.451-0.059-2.903-0.099-4.366-0.099
		c-1.046,0-2.093,0.02-3.139,0.049c0.139,0.27,0.28,0.54,0.41,0.818c0.909-0.023,1.819-0.034,2.729-0.034
		C324.728,173.94,326.137,173.974,327.544,174.032"/>
	<path fill="#FC5563" d="M326.89,177.274c-1.655,0.007-3.302,0.052-4.941,0.137c0.091,0.274,0.181,0.543,0.263,0.818
		c1.489-0.073,2.986-0.11,4.485-0.12C326.765,177.828,326.828,177.552,326.89,177.274"/>
	<path fill="#FC5563" d="M325.711,181.593c-0.895,0.049-1.784,0.11-2.673,0.18c0.046,0.274,0.092,0.549,0.134,0.824
		c0.749-0.06,1.507-0.108,2.262-0.153C325.528,182.16,325.623,181.878,325.711,181.593"/>
	<path fill="#FC5563" d="M323.473,187.141c0.047-0.007,0.099-0.013,0.149-0.017c0.131-0.294,0.253-0.59,0.374-0.883
		c-0.176,0.02-0.351,0.041-0.523,0.06V187.141z"/>
	<path fill="#808184" d="M171.577,155.894c-0.503,0.123-1.013,0.223-1.523,0.334c-0.121,0.311-0.246,0.619-0.363,0.932
		c0.702-0.152,1.408-0.295,2.106-0.464C171.728,156.432,171.648,156.163,171.577,155.894"/>
	<path fill="#808184" d="M172.994,160.667c-1.57,0.33-3.153,0.624-4.754,0.882c-0.083,0.294-0.168,0.589-0.248,0.887
		c1.777-0.282,3.539-0.609,5.288-0.981C173.187,161.193,173.083,160.932,172.994,160.667"/>
	<path fill="#808184" d="M174.794,165.292c-2.565,0.479-5.16,0.849-7.783,1.137c-0.059,0.285-0.109,0.571-0.168,0.855
		c2.795-0.301,5.562-0.696,8.291-1.209C175.02,165.813,174.907,165.553,174.794,165.292"/>
	<path fill="#808184" d="M176.976,169.796c-3.523,0.589-7.108,0.981-10.739,1.21c-0.037,0.278-0.074,0.559-0.106,0.84
		c3.809-0.229,7.565-0.647,11.253-1.271C177.242,170.317,177.111,170.057,176.976,169.796"/>
	<path fill="#808184" d="M179.574,174.209c-4.502,0.682-9.104,1.06-13.777,1.146c-0.019,0.278-0.046,0.556-0.065,0.834
		c4.864-0.089,9.652-0.487,14.335-1.215C179.896,174.725,179.738,174.464,179.574,174.209"/>
	<path fill="#808184" d="M183.215,179.279c-0.199-0.25-0.388-0.505-0.585-0.755c-4.802,0.673-9.706,1.031-14.69,1.031
		c-0.769,0-1.535-0.009-2.298-0.026c0,0.064-0.009,0.127-0.009,0.188c0,0.22,0.017,0.43,0.017,0.645
		c0.765,0.018,1.525,0.027,2.29,0.027C173.125,180.388,178.224,180.004,183.215,179.279"/>
	<path fill="#808184" d="M186.916,183.501c-0.233-0.244-0.458-0.496-0.688-0.744c-4.628,0.627-9.346,0.957-14.146,0.957
		c-2.123,0-4.229-0.073-6.327-0.2c0.017,0.281,0.045,0.554,0.062,0.834c2.077,0.124,4.163,0.199,6.266,0.199
		C177.117,184.547,182.068,184.185,186.916,183.501"/>
	<path fill="#808184" d="M191.301,187.629c-0.164-0.14-0.332-0.271-0.496-0.417c-0.113-0.1-0.225-0.204-0.34-0.308
		c-4.656,0.638-9.404,0.973-14.234,0.973c-3.414,0-6.793-0.169-10.13-0.49c0.038,0.278,0.074,0.562,0.107,0.842
		c3.3,0.312,6.644,0.479,10.022,0.479C181.346,188.708,186.373,188.333,191.301,187.629"/>
	<path fill="#808184" d="M196.529,191.636c-0.336-0.233-0.672-0.46-1.011-0.699c-4.943,0.72-10.001,1.097-15.142,1.097
		c-4.648,0-9.224-0.312-13.716-0.899c0.053,0.288,0.102,0.579,0.155,0.865c4.438,0.569,8.969,0.867,13.561,0.867
		C185.863,192.867,191.258,192.447,196.529,191.636"/>
	<path fill="#808184" d="M202.852,195.432c-0.4-0.208-0.804-0.423-1.204-0.643c-5.577,0.921-11.296,1.406-17.127,1.406
		c-5.824,0-11.531-0.492-17.101-1.409c0.069,0.291,0.129,0.589,0.199,0.881c5.511,0.888,11.15,1.36,16.901,1.36
		C190.771,197.028,196.894,196.478,202.852,195.432"/>
	<path fill="#808184" d="M210.748,198.861c-0.497-0.178-0.995-0.353-1.49-0.541c-6.662,1.331-13.546,2.036-20.591,2.036
		c-6.938,0-13.719-0.687-20.285-1.981c0.094,0.302,0.178,0.603,0.275,0.903c6.482,1.249,13.169,1.911,20.01,1.911
		C196.239,201.189,203.623,200.379,210.748,198.861"/>
	<path fill="#808184" d="M221.02,201.519c-0.63-0.103-1.258-0.22-1.884-0.347c-8.418,2.18-17.239,3.343-26.321,3.343
		c-7.997,0-15.783-0.911-23.271-2.614c0.112,0.314,0.246,0.627,0.365,0.94c7.379,1.638,15.042,2.505,22.905,2.505
		C202.577,205.346,212.035,204.009,221.02,201.519"/>
	<path fill="#808184" d="M235.468,202.249c-0.878,0.054-1.757,0.086-2.636,0.107c-11.202,4.086-23.282,6.319-35.875,6.319
		c-8.974,0-17.687-1.142-26.007-3.275c0.139,0.329,0.292,0.652,0.437,0.977c8.196,2.041,16.758,3.132,25.57,3.132
		C210.535,209.508,223.521,206.93,235.468,202.249"/>
	<path fill="#808184" d="M258.325,196.825c-1.419,0.605-2.864,1.172-4.334,1.682c-15.551,9.104-33.624,14.328-52.886,14.328
		c-9.882,0-19.439-1.38-28.513-3.951c0.173,0.34,0.341,0.686,0.519,1.021c8.921,2.452,18.306,3.763,27.994,3.763
		C222.159,213.667,241.806,207.481,258.325,196.825"/>
	<path fill="#808184" d="M205.249,216.996c-10.691,0-21.021-1.613-30.748-4.604c0.209,0.357,0.41,0.712,0.625,1.062
		c9.553,2.844,19.663,4.375,30.123,4.375c38.528,0,72.316-20.716,90.915-51.624c-0.424,0.137-0.84,0.286-1.25,0.451
		C276.355,196.833,243.111,216.996,205.249,216.996"/>
	<path fill="#808184" d="M209.396,221.154c-11.398,0-22.38-1.827-32.669-5.207c0.258,0.382,0.534,0.752,0.801,1.13
		c10.066,3.184,20.77,4.909,31.868,4.909c40.598,0,75.919-23.005,93.765-56.689c-0.307-0.017-0.61-0.034-0.92-0.037
		C284.479,198.494,249.532,221.154,209.396,221.154"/>
	<path fill="#808184" d="M213.54,225.315c-11.938,0-23.416-2.007-34.12-5.699c0.309,0.395,0.611,0.798,0.928,1.186
		c10.446,3.461,21.603,5.347,33.192,5.347c41.8,0,78.021-24.382,95.31-59.712c-0.262-0.096-0.522-0.194-0.791-0.28
		C290.884,201.16,254.979,225.315,213.54,225.315"/>
	<path fill="#808184" d="M313.046,168.553c-16.818,35.955-53.23,60.92-95.36,60.92c-12.269,0-24.054-2.118-35.013-6.007
		c0.402,0.437,0.812,0.864,1.225,1.287c10.621,3.591,21.978,5.553,33.788,5.553c42.415,0,79.076-25.11,96.053-61.281
		c-0.066-0.05-0.126-0.102-0.193-0.151C313.383,168.762,313.215,168.661,313.046,168.553"/>
	<path fill="#808184" d="M221.83,233.631c-12.253,0-24.026-2.113-34.975-5.994c0.541,0.491,1.099,0.968,1.654,1.438
		c10.487,3.488,21.685,5.389,33.32,5.389c42.221,0,78.742-24.882,95.819-60.789c-0.168-0.292-0.336-0.578-0.513-0.852
		C300.292,208.717,263.915,233.631,221.83,233.631"/>
	<path fill="#808184" d="M225.977,237.795c-11.586,0-22.736-1.891-33.164-5.374c0.772,0.552,1.559,1.091,2.357,1.607
		c9.756,2.978,20.092,4.6,30.807,4.6c41.05,0,76.723-23.517,94.367-57.824c-0.096-0.416-0.194-0.833-0.304-1.241
		C302.694,214.069,267.052,237.795,225.977,237.795"/>
	<path fill="#808184" d="M320.51,190.431c-18.409,30.837-52.034,51.522-90.389,51.522c-9.333,0-18.38-1.228-27.002-3.524
		c1.533,0.714,3.095,1.376,4.692,1.967c7.195,1.555,14.654,2.39,22.31,2.39c37.5,0,70.513-19.617,89.395-49.157L320.51,190.431z"/>
	<rect x="26.549" y="33.615" fill="none" width="403" height="307"/>
	<rect x="26.549" y="33.615" fill="none" width="403" height="307"/>
</g>
</svg>
