<?xml version="1.0" encoding="utf-8"?>
<!-- Generator: Adobe Illustrator 16.0.0, SVG Export Plug-In . SVG Version: 6.00 Build 0)  -->
<!DOCTYPE svg PUBLIC "-//W3C//DTD SVG 1.1//EN" "http://www.w3.org/Graphics/SVG/1.1/DTD/svg11.dtd">
<svg version="1.1" id="Capa_1" xmlns="http://www.w3.org/2000/svg" xmlns:xlink="http://www.w3.org/1999/xlink" x="0px" y="0px"
	 width="482.976px" height="389.37px" viewBox="0 0 482.976 389.37" enable-background="new 0 0 482.976 389.37"
	 xml:space="preserve">
<g>
	<path fill="#FC5563" d="M71.033,279.063c-2.476-2.38-6.163-3.703-9.379-3.703c-7.902,0-12.697,6.029-12.697,13.643
		c0,6.078,3.533,12.37,12.697,12.37c2.897,0,5.425-0.636,8.323-2.96v-6.557h-9.431v-6.237h15.805v15.595
		c-3.631,4.176-8.216,6.661-14.697,6.661c-13.856,0-19.492-9.147-19.492-18.872c0-10.416,6.48-20.039,19.492-20.039
		c4.954,0,9.908,1.903,13.696,5.658L71.033,279.063z"/>
	<path fill="#FC5563" d="M107.393,294.022c0,7.51-5.109,13.588-13.539,13.588c-8.431,0-13.488-6.078-13.488-13.588
		c0-7.455,5.164-13.586,13.438-13.586C102.075,280.436,107.393,286.567,107.393,294.022 M86.792,294.022
		c0,3.967,2.374,7.668,7.062,7.668c4.687,0,7.062-3.701,7.062-7.668c0-3.912-2.744-7.717-7.062-7.717
		C89.217,286.305,86.792,290.11,86.792,294.022"/>
	<path fill="#FC5563" d="M137.638,294.022c0,7.51-5.108,13.588-13.538,13.588c-8.431,0-13.487-6.078-13.487-13.588
		c0-7.455,5.164-13.586,13.436-13.586S137.638,286.567,137.638,294.022 M117.039,294.022c0,3.967,2.374,7.668,7.062,7.668
		s7.062-3.701,7.062-7.668c0-3.912-2.744-7.717-7.062-7.717C119.462,286.305,117.039,290.11,117.039,294.022"/>
	<path fill="#FC5563" d="M169.044,270.075v36.955h-6.006l-0.42-3.595c-2.006,3.118-5.216,4.175-8.38,4.175
		c-7.637,0-13.381-5.074-13.381-13.64c0-8.987,5.638-13.64,13.226-13.64c2.739,0,7.006,1.48,8.535,4.177v-14.433H169.044z
		 M147.284,293.97c0,4.547,3.268,7.665,7.38,7.665c4.057,0,7.533-2.959,7.533-7.665c0-4.547-3.477-7.613-7.533-7.613
		C150.551,286.357,147.284,289.264,147.284,293.97"/>
	<path fill="#FC5563" d="M174.632,317.92v-36.956h6.006l0.426,3.597c1.999-2.907,5.477-4.179,8.426-4.179
		c8.011,0,13.329,5.975,13.329,13.64c0,7.613-4.791,13.643-13.118,13.643c-2.739,0-6.796-0.847-8.637-3.703v13.959H174.632z
		 M196.392,294.022c0-4.071-2.738-7.399-7.374-7.399s-7.375,3.328-7.375,7.399c0,4.073,3,7.402,7.375,7.402
		C193.392,301.424,196.392,298.095,196.392,294.022"/>
	<path fill="#FC5563" d="M228.171,280.964h6.165v26.065h-6.062l-0.313-3.805c-1.478,3.063-5.533,4.544-8.431,4.596
		c-7.692,0.054-13.385-4.703-13.385-13.851c0-8.987,5.954-13.692,13.544-13.64c3.477,0,6.794,1.639,8.271,4.23L228.171,280.964z
		 M212.576,293.97c0,4.969,3.421,7.93,7.693,7.93c10.113,0,10.113-15.808,0-15.808C215.997,286.092,212.576,289.002,212.576,293.97"
		/>
	<path fill="#FC5563" d="M258.89,307.03v-13.641c0-3.966-2.159-6.979-6.273-6.979c-3.946,0-6.635,3.33-6.635,7.297v13.322h-6.375
		v-26.117h5.743l0.422,3.54c2.635-2.588,5.268-3.912,8.533-3.912c6.113,0,11.011,4.602,11.011,12.795v13.694H258.89z"/>
	<path fill="#FC5563" d="M297.83,270.075v36.955h-6.006l-0.422-3.595c-2.004,3.118-5.215,4.175-8.378,4.175
		c-7.637,0-13.381-5.074-13.381-13.64c0-8.987,5.636-13.64,13.225-13.64c2.74,0,7.007,1.48,8.534,4.177v-14.433H297.83z
		 M276.069,293.97c0,4.547,3.268,7.665,7.38,7.665c4.057,0,7.533-2.959,7.533-7.665c0-4.547-3.477-7.613-7.533-7.613
		C279.336,286.357,276.069,289.264,276.069,293.97"/>
	<path fill="#FC5563" d="M324.023,280.964h6.165v26.065h-6.062l-0.313-3.805c-1.477,3.063-5.532,4.544-8.43,4.596
		c-7.693,0.054-13.386-4.703-13.386-13.851c0-8.987,5.953-13.692,13.544-13.64c3.478,0,6.795,1.639,8.271,4.23L324.023,280.964z
		 M308.427,293.97c0,4.969,3.422,7.93,7.693,7.93c10.113,0,10.113-15.808,0-15.808C311.849,286.092,308.427,289.002,308.427,293.97"
		/>
	<path fill="#FC5563" d="M339.566,305.444c0,2.749-4.159,2.749-4.159,0C335.407,302.693,339.566,302.693,339.566,305.444"/>
	<path fill="#FC5563" d="M367.018,303.38c-2.635,2.645-6.056,3.913-9.482,3.913c-7.323,0-13.385-5.076-13.385-13.323
		c0-8.246,5.852-13.322,13.385-13.322c3.427,0,6.848,1.321,9.482,3.913l-1.688,1.64c-2.106-2.114-5.004-3.121-7.795-3.121
		c-5.903,0-10.856,3.859-10.856,10.891c0,7.033,4.953,10.893,10.856,10.893c2.791,0,5.638-1.112,7.744-3.228L367.018,303.38z"/>
	<path fill="#FC5563" d="M371.608,294.022c0-8.298,5.903-13.586,13.226-13.586s13.221,5.288,13.221,13.586
		c0,8.301-5.898,13.377-13.221,13.377S371.608,302.323,371.608,294.022 M395.525,294.022c0-6.767-4.795-11.154-10.691-11.154
		c-5.902,0-10.698,4.388-10.698,11.154s4.796,10.841,10.698,10.841C390.73,304.863,395.525,300.789,395.525,294.022"/>
	<path fill="#FC5563" d="M442.577,307.03V291.38c0-5.023-3.369-8.564-8.322-8.564c-4.949,0-8.375,3.701-8.375,8.723v15.491h-2.585
		v-15.491c0-5.021-3.42-8.671-8.375-8.671c-4.953,0-8.322,3.649-8.322,8.671v15.491h-2.585v-26.117h2.427l0.051,4.335
		c1.789-3.437,5.113-4.865,8.481-4.865c3.954,0,8.113,1.799,9.643,6.45c1.578-4.281,5.635-6.45,9.641-6.45
		c6.374,0,10.907,4.495,10.907,10.998v15.649H442.577z"/>
	<path fill="#FC5563" d="M143.807,150.745c0,15.745,3.429,30.697,9.568,44.162c2.479,4.786,5.331,9.394,8.552,13.771
		c-10.922-16.646-17.287-36.556-17.287-57.933c0-58.265,47.233-105.663,105.296-105.663c4.765,0,9.454,0.326,14.056,0.946
		c-0.755-0.403-1.532-0.771-2.311-1.121c-3.859-0.429-7.777-0.657-11.745-0.657C191.418,44.249,143.807,92.023,143.807,150.745"/>
	<path fill="#FC5563" d="M147.955,154.902c0,21.144,6.172,40.867,16.803,57.454c1.591,1.968,3.254,3.889,4.995,5.753
		c-13.162-17.639-20.968-39.524-20.968-63.207c0-58.26,47.234-105.66,105.294-105.66c5.644,0,11.177,0.453,16.578,1.314
		c-0.415-0.356-0.845-0.699-1.275-1.036c-4.999-0.726-10.106-1.111-15.303-1.111C195.561,48.409,147.955,96.183,147.955,154.902"/>
	<path fill="#FC5563" d="M152.103,159.061c0,22.153,6.777,42.746,18.357,59.802c0.523,0.555,1.048,1.099,1.584,1.64
		c0.649,0.654,1.312,1.295,1.978,1.93c-13.236-17.666-21.092-39.613-21.092-63.371c0-58.261,47.233-105.66,105.292-105.66
		c5.664,0,11.221,0.458,16.644,1.326c-0.288-0.332-0.582-0.66-0.879-0.98c-5.142-0.771-10.407-1.178-15.765-1.178
		C199.708,52.568,152.103,100.343,152.103,159.061"/>
	<path fill="#FC5563" d="M156.246,163.223c0,22.115,6.756,42.672,18.3,59.714c0.923,0.872,1.861,1.717,2.813,2.556
		c-12.747-17.477-20.282-39.005-20.282-62.27c0-58.261,47.233-105.661,105.296-105.661c5.271,0,10.452,0.398,15.519,1.15
		c-0.206-0.315-0.425-0.62-0.644-0.933c-4.86-0.687-9.829-1.05-14.875-1.05C203.857,56.729,156.246,104.504,156.246,163.223"/>
	<path fill="#FC5563" d="M160.391,167.38c0,21.652,6.48,41.812,17.584,58.639c0.772,0.665,1.547,1.319,2.332,1.958
		c-12.021-17.166-19.086-38.064-19.086-60.597c0-58.259,47.234-105.66,105.294-105.66c4.609,0,9.153,0.304,13.608,0.883
		c-0.147-0.301-0.299-0.602-0.457-0.897c-4.312-0.538-8.7-0.816-13.151-0.816C208,60.89,160.391,108.662,160.391,167.38"/>
	<path fill="#FC5563" d="M164.539,171.541c0,20.985,6.083,40.572,16.568,57.081c0.663,0.53,1.335,1.051,2.01,1.562
		c-11.206-16.789-17.749-36.962-17.749-58.644c0-58.263,47.232-105.66,105.29-105.66c3.768,0,7.482,0.203,11.146,0.593
		c-0.106-0.295-0.214-0.586-0.332-0.875c-3.557-0.364-7.161-0.552-10.813-0.552C212.145,65.048,164.539,112.824,164.539,171.541"/>
	<path fill="#FC5563" d="M168.682,175.703c0,20.202,5.638,39.11,15.41,55.223c0.589,0.432,1.183,0.857,1.776,1.277
		c-10.352-16.351-16.356-35.735-16.356-56.5c0-58.262,47.234-105.663,105.295-105.663c2.763,0,5.499,0.11,8.207,0.322
		c-0.069-0.287-0.15-0.569-0.229-0.851c-2.636-0.201-5.297-0.304-7.978-0.304C216.292,69.207,168.682,116.981,168.682,175.703"/>
	<path fill="#FC5563" d="M172.83,179.862c0,19.346,5.17,37.501,14.192,53.15c0.524,0.366,1.057,0.716,1.59,1.066
		c-9.49-15.859-14.954-34.409-14.954-54.217c0-58.262,47.236-105.659,105.296-105.659c1.629,0,3.247,0.042,4.857,0.114
		c-0.042-0.281-0.096-0.562-0.144-0.837c-1.562-0.068-3.135-0.11-4.714-0.11C220.436,73.37,172.83,121.141,172.83,179.862"/>
	<path fill="#FC5563" d="M176.972,184.022c0,18.43,4.689,35.776,12.938,50.914c0.478,0.303,0.967,0.599,1.452,0.899
		c-8.627-15.316-13.56-32.997-13.56-51.813c0-58.261,47.234-105.663,105.294-105.663c0.365,0,0.73,0.012,1.099,0.017
		c-0.013-0.281-0.036-0.556-0.052-0.834c-0.349-0.002-0.696-0.015-1.047-0.015C224.583,77.526,176.972,125.302,176.972,184.022"/>
	<path fill="#FC5563" d="M186.074,156.006c0.721-1.412,1.473-2.801,2.284-4.15c14.457-39.502,51.787-68.009,95.802-69.288
		c0.014-0.277,0.027-0.554,0.037-0.833C238.178,83.044,199.404,113.891,186.074,156.006"/>
	<path fill="#FC5563" d="M194.14,237.491c-3.521-6.671-6.354-13.76-8.396-21.176c-0.693-1.398-1.34-2.823-1.936-4.271
		c1.984,8.672,5.028,16.944,8.986,24.67C193.239,236.979,193.692,237.23,194.14,237.491"/>
	<path fill="#FC5563" d="M196.958,239.049c-2.089-4.242-3.907-8.638-5.426-13.172c-0.558-0.768-1.094-1.543-1.615-2.332
		c1.564,5.12,3.503,10.074,5.785,14.837C196.117,238.609,196.539,238.825,196.958,239.049"/>
	<path fill="#FC5563" d="M201.095,136.451c0.714-0.644,1.438-1.274,2.179-1.886c17.494-26.776,46.765-45.136,80.366-47.597
		c0.052-0.281,0.108-0.561,0.151-0.842C248.867,88.616,218.561,108.142,201.095,136.451"/>
	<path fill="#FC5563" d="M199.821,240.515c-1.32-2.874-2.508-5.822-3.572-8.831c-0.487-0.534-0.964-1.075-1.436-1.627
		c1.116,3.372,2.397,6.669,3.835,9.883C199.034,240.138,199.43,240.325,199.821,240.515"/>
	<path fill="#FC5563" d="M215.628,126.501c0.645-0.329,1.29-0.646,1.948-0.951c16.528-18.274,39.336-30.728,64.966-33.905
		c0.086-0.288,0.163-0.576,0.242-0.865C256.115,93.997,232.458,107.18,215.628,126.501"/>
	<path fill="#FC5563" d="M202.735,241.896c-0.837-1.979-1.614-3.99-2.333-6.028c-0.443-0.407-0.877-0.825-1.313-1.246
		c0.772,2.297,1.623,4.555,2.546,6.781C202,241.573,202.37,241.73,202.735,241.896"/>
	<path fill="#FC5563" d="M230.485,121.084c13.962-12.237,31.158-20.846,50.113-24.34c0.143-0.306,0.276-0.615,0.413-0.926
		c-19.858,3.55-37.818,12.666-52.231,25.674C229.345,121.342,229.915,121.218,230.485,121.084"/>
	<path fill="#FC5563" d="M241.883,119.434c10.501-7.693,22.466-13.488,35.395-16.868c0.233-0.34,0.46-0.685,0.688-1.032
		c-13.818,3.481-26.571,9.688-37.65,18.02C240.837,119.509,241.36,119.463,241.883,119.434"/>
	<path fill="#FC5563" d="M205.72,243.196c-0.518-1.333-1.012-2.681-1.478-4.037c-0.402-0.323-0.807-0.644-1.199-0.97
		c0.509,1.541,1.051,3.067,1.626,4.576C205.017,242.915,205.371,243.051,205.72,243.196"/>
	<path fill="#FC5563" d="M253.721,118.456c5.215-3.161,10.731-5.878,16.487-8.105c0.587-0.493,1.152-1.004,1.709-1.532
		c-7.209,2.624-14.057,6.008-20.446,10.058C252.229,118.761,252.974,118.617,253.721,118.456"/>
	<path fill="#FC5563" d="M208.773,244.408c-0.302-0.84-0.592-1.69-0.869-2.542c-0.379-0.259-0.755-0.515-1.126-0.786
		c0.31,0.989,0.639,1.972,0.981,2.952C208.095,244.162,208.437,244.281,208.773,244.408"/>
	<path fill="#FC5563" d="M211.89,245.536c-0.148-0.46-0.295-0.921-0.438-1.384c-0.355-0.213-0.71-0.427-1.058-0.647
		c0.169,0.57,0.338,1.136,0.515,1.701C211.235,245.321,211.564,245.422,211.89,245.536"/>
	<path fill="#FC5563" d="M215.078,246.569c-0.04-0.149-0.089-0.3-0.132-0.448c-0.336-0.18-0.67-0.368-1.003-0.55
		c0.062,0.236,0.124,0.476,0.189,0.713C214.446,246.383,214.764,246.474,215.078,246.569"/>
	<path fill="#FC5563" d="M321.074,127.216c-11.891-5.507-24.955-8.877-38.71-9.603c-1.374,0.184-2.738,0.415-4.084,0.702
		c16.529,0.238,32.157,4.317,46.024,11.391C323.261,128.847,322.191,128.008,321.074,127.216"/>
	<path fill="#FC5563" d="M329.081,134.191c-0.598-0.629-1.206-1.25-1.837-1.856c-14.016-6.856-29.747-10.711-46.361-10.711
		c-5.224,0-10.36,0.387-15.389,1.123c-0.782,0.388-1.557,0.788-2.32,1.211c5.76-0.985,11.676-1.503,17.709-1.503
		C298.239,122.455,314.629,126.695,329.081,134.191"/>
	<path fill="#FC5563" d="M332.23,137.844c-0.416-0.529-0.841-1.05-1.281-1.565c-13.902-6.725-29.482-10.495-45.922-10.495
		c-10.85,0-21.322,1.645-31.19,4.699c-0.512,0.44-1.013,0.893-1.507,1.356c10.298-3.384,21.287-5.224,32.697-5.224
		C301.993,126.615,318.022,130.665,332.23,137.844"/>
	<path fill="#FC5563" d="M334.631,141.14c-0.308-0.459-0.63-0.915-0.953-1.366c-13.543-6.305-28.62-9.831-44.505-9.831
		c-15.487,0-30.212,3.348-43.491,9.361c-0.261,0.347-0.514,0.699-0.766,1.053c-0.069,0.106-0.14,0.216-0.21,0.319
		c13.515-6.35,28.584-9.901,44.467-9.901C305.445,130.775,320.864,134.498,334.631,141.14"/>
	<path fill="#FC5563" d="M336.581,144.269c-0.239-0.415-0.479-0.823-0.729-1.228c-13.028-5.741-27.415-8.941-42.532-8.941
		c-19.059,0-36.958,5.075-52.431,13.935c-0.148,0.398-0.296,0.805-0.432,1.21c15.548-9.093,33.606-14.31,52.862-14.31
		C308.73,134.936,323.375,138.271,336.581,144.269"/>
	<path fill="#FC5563" d="M338.216,147.33c-0.19-0.379-0.383-0.759-0.58-1.134c-12.399-5.11-25.96-7.934-40.172-7.934
		c-21.579,0-41.67,6.505-58.443,17.652c-0.039,0.352-0.071,0.708-0.104,1.062c16.753-11.288,36.897-17.881,58.548-17.881
		C311.906,139.096,325.678,142.027,338.216,147.33"/>
	<path fill="#FC5563" d="M339.604,150.376c-0.148-0.356-0.3-0.713-0.458-1.067c-11.673-4.445-24.325-6.887-37.536-6.887
		c-23.399,0-45.053,7.646-62.618,20.574c0.031,0.316,0.062,0.638,0.104,0.951c17.496-12.995,39.125-20.692,62.515-20.692
		C314.999,143.255,327.813,145.78,339.604,150.376"/>
	<path fill="#FC5563" d="M340.786,153.433c-0.116-0.337-0.247-0.674-0.373-1.015c-10.865-3.777-22.526-5.837-34.657-5.837
		c-24.698,0-47.457,8.514-65.509,22.772c0.085,0.285,0.165,0.574,0.258,0.855c17.951-14.266,40.627-22.794,65.251-22.794
		C318.034,147.414,329.824,149.538,340.786,153.433"/>
	<path fill="#FC5563" d="M341.763,156.523c-0.093-0.321-0.178-0.645-0.274-0.965c-9.984-3.128-20.592-4.813-31.588-4.813
		c-25.564,0-49.049,9.118-67.387,24.284c0.127,0.251,0.263,0.499,0.397,0.748c18.217-15.112,41.566-24.2,66.989-24.2
		C321.003,151.577,331.708,153.313,341.763,156.523"/>
	<path fill="#FC5563" d="M342.573,159.677c-0.066-0.309-0.145-0.616-0.22-0.923c-9.016-2.507-18.507-3.852-28.308-3.852
		c-26.031,0-49.898,9.46-68.38,25.128c0.168,0.219,0.336,0.438,0.513,0.653c18.341-15.554,42.027-24.949,67.867-24.949
		C323.932,155.734,333.496,157.11,342.573,159.677"/>
	<path fill="#FC5563" d="M343.189,162.912c-0.047-0.298-0.089-0.596-0.143-0.892c-7.978-1.929-16.297-2.959-24.855-2.959
		c-26.119,0-50.065,9.528-68.575,25.294c0.204,0.188,0.403,0.38,0.619,0.562c18.353-15.6,42.077-25.024,67.956-25.024
		C326.804,159.894,335.174,160.946,343.189,162.912"/>
	<path fill="#FC5563" d="M343.623,166.227c-0.027-0.294-0.06-0.579-0.094-0.87c-6.851-1.4-13.935-2.134-21.19-2.134
		c-25.846,0-49.555,9.319-67.981,24.785c0.244,0.155,0.49,0.311,0.741,0.46c18.252-15.237,41.695-24.414,67.24-24.414
		C329.629,164.055,336.749,164.804,343.623,166.227"/>
	<path fill="#FC5563" d="M343.862,169.66c-0.015-0.284-0.02-0.565-0.036-0.848c-5.645-0.935-11.438-1.432-17.343-1.432
		c-25.133,0-48.249,8.818-66.447,23.526c0.298,0.12,0.595,0.236,0.895,0.344c18-14.408,40.79-23.037,65.553-23.037
		C332.402,168.213,338.208,168.714,343.862,169.66"/>
	<path fill="#FC5563" d="M343.88,173.207c0.006-0.278,0.01-0.557,0.013-0.834c-4.345-0.546-8.772-0.831-13.264-0.831
		c-1.166,0-2.326,0.023-3.479,0.065c0.521,0.242,1.033,0.505,1.537,0.791c0.648-0.015,1.292-0.025,1.942-0.025
		C335.119,172.373,339.539,172.658,343.88,173.207"/>
	<path fill="#FC5563" d="M268.227,192.983c9.965-7.381,21.264-13.048,33.464-16.549c0.395-0.421,0.808-0.822,1.234-1.203
		c-13.138,3.567-25.276,9.606-35.877,17.591C267.443,192.883,267.835,192.937,268.227,192.983"/>
	<path fill="#FC5563" d="M279.248,192.458c4.907-3.069,10.084-5.745,15.485-7.979c0.54-0.493,1.063-1.005,1.572-1.535
		c-6.771,2.651-13.202,5.983-19.218,9.907C277.814,192.747,278.533,192.616,279.248,192.458"/>
	<path fill="#FC5563" d="M343.654,176.915c0.026-0.276,0.059-0.553,0.079-0.83c-2.95-0.248-5.942-0.382-8.958-0.382
		c-0.618,0-1.231,0.011-1.848,0.022c0.231,0.263,0.464,0.54,0.691,0.823c0.383-0.005,0.765-0.016,1.156-0.016
		C337.762,176.533,340.727,176.665,343.654,176.915"/>
	<path fill="#FC5563" d="M343.157,180.787c0.046-0.274,0.082-0.552,0.126-0.826c-1.451-0.059-2.903-0.099-4.366-0.099
		c-1.046,0-2.093,0.02-3.139,0.049c0.139,0.27,0.28,0.54,0.41,0.818c0.909-0.023,1.819-0.034,2.729-0.034
		C340.34,180.695,341.75,180.729,343.157,180.787"/>
	<path fill="#FC5563" d="M342.502,184.029c-1.655,0.007-3.302,0.052-4.941,0.137c0.091,0.274,0.181,0.543,0.263,0.818
		c1.489-0.073,2.986-0.11,4.485-0.12C342.377,184.583,342.441,184.307,342.502,184.029"/>
	<path fill="#FC5563" d="M341.324,188.348c-0.895,0.049-1.784,0.11-2.673,0.18c0.046,0.274,0.092,0.549,0.134,0.824
		c0.749-0.06,1.507-0.108,2.262-0.153C341.141,188.915,341.236,188.633,341.324,188.348"/>
	<path fill="#FC5563" d="M339.085,193.896c0.047-0.007,0.099-0.013,0.149-0.017c0.131-0.294,0.253-0.59,0.374-0.883
		c-0.176,0.02-0.351,0.041-0.523,0.06V193.896z"/>
	<path fill="#808184" d="M187.19,162.649c-0.503,0.123-1.013,0.223-1.523,0.334c-0.121,0.311-0.246,0.619-0.363,0.932
		c0.702-0.152,1.408-0.295,2.106-0.464C187.34,163.187,187.261,162.917,187.19,162.649"/>
	<path fill="#808184" d="M188.607,167.422c-1.57,0.33-3.153,0.624-4.754,0.882c-0.083,0.294-0.168,0.589-0.248,0.887
		c1.777-0.282,3.539-0.609,5.288-0.981C188.799,167.948,188.696,167.687,188.607,167.422"/>
	<path fill="#808184" d="M190.407,172.046c-2.565,0.479-5.16,0.849-7.783,1.137c-0.059,0.285-0.109,0.571-0.168,0.855
		c2.795-0.301,5.562-0.696,8.291-1.209C190.632,172.568,190.52,172.308,190.407,172.046"/>
	<path fill="#808184" d="M192.588,176.551c-3.523,0.589-7.108,0.981-10.739,1.21c-0.037,0.278-0.074,0.559-0.106,0.84
		c3.809-0.229,7.565-0.647,11.253-1.271C192.855,177.072,192.724,176.812,192.588,176.551"/>
	<path fill="#808184" d="M195.187,180.964c-4.502,0.682-9.104,1.06-13.777,1.146c-0.019,0.278-0.046,0.556-0.065,0.834
		c4.864-0.089,9.652-0.487,14.335-1.215C195.509,181.48,195.351,181.219,195.187,180.964"/>
	<path fill="#808184" d="M198.828,186.034c-0.199-0.25-0.388-0.505-0.585-0.755c-4.802,0.673-9.706,1.031-14.69,1.031
		c-0.769,0-1.535-0.009-2.298-0.026c0,0.064-0.009,0.127-0.009,0.188c0,0.22,0.017,0.43,0.017,0.645
		c0.765,0.018,1.525,0.027,2.29,0.027C188.738,187.143,193.836,186.759,198.828,186.034"/>
	<path fill="#808184" d="M202.529,190.256c-0.233-0.244-0.458-0.496-0.688-0.744c-4.628,0.627-9.346,0.957-14.146,0.957
		c-2.123,0-4.229-0.073-6.327-0.2c0.017,0.281,0.045,0.554,0.062,0.834c2.077,0.124,4.163,0.199,6.266,0.199
		C192.73,191.302,197.681,190.94,202.529,190.256"/>
	<path fill="#808184" d="M206.914,194.384c-0.164-0.14-0.332-0.271-0.496-0.417c-0.113-0.1-0.225-0.204-0.34-0.308
		c-4.656,0.638-9.404,0.973-14.234,0.973c-3.414,0-6.793-0.169-10.13-0.49c0.038,0.278,0.074,0.562,0.107,0.842
		c3.3,0.312,6.644,0.479,10.022,0.479C196.958,195.463,201.986,195.088,206.914,194.384"/>
	<path fill="#808184" d="M212.142,198.391c-0.336-0.233-0.672-0.46-1.011-0.699c-4.943,0.72-10.001,1.097-15.142,1.097
		c-4.648,0-9.224-0.312-13.716-0.899c0.053,0.288,0.102,0.579,0.155,0.865c4.438,0.569,8.969,0.867,13.561,0.867
		C201.476,199.622,206.871,199.202,212.142,198.391"/>
	<path fill="#808184" d="M218.464,202.187c-0.4-0.208-0.804-0.423-1.204-0.643c-5.577,0.921-11.296,1.406-17.127,1.406
		c-5.824,0-11.531-0.492-17.101-1.409c0.069,0.291,0.129,0.589,0.199,0.881c5.511,0.888,11.15,1.36,16.901,1.36
		C206.384,203.783,212.506,203.233,218.464,202.187"/>
	<path fill="#808184" d="M226.361,205.616c-0.497-0.178-0.995-0.353-1.49-0.541c-6.662,1.331-13.546,2.036-20.591,2.036
		c-6.938,0-13.719-0.687-20.285-1.981c0.094,0.302,0.178,0.603,0.275,0.903c6.482,1.249,13.169,1.911,20.01,1.911
		C211.852,207.944,219.236,207.134,226.361,205.616"/>
	<path fill="#808184" d="M236.632,208.274c-0.63-0.103-1.258-0.22-1.884-0.347c-8.418,2.18-17.239,3.343-26.321,3.343
		c-7.997,0-15.783-0.911-23.271-2.614c0.112,0.314,0.246,0.627,0.365,0.94c7.379,1.638,15.042,2.505,22.905,2.505
		C218.19,212.101,227.648,210.764,236.632,208.274"/>
	<path fill="#808184" d="M251.081,209.003c-0.878,0.054-1.757,0.086-2.636,0.107c-11.202,4.086-23.282,6.319-35.875,6.319
		c-8.974,0-17.687-1.142-26.007-3.275c0.139,0.329,0.292,0.652,0.437,0.977c8.196,2.041,16.758,3.132,25.57,3.132
		C226.148,216.263,239.134,213.685,251.081,209.003"/>
	<path fill="#808184" d="M273.938,203.58c-1.419,0.605-2.864,1.172-4.334,1.682c-15.551,9.104-33.624,14.328-52.886,14.328
		c-9.882,0-19.439-1.38-28.513-3.951c0.173,0.34,0.341,0.686,0.519,1.021c8.921,2.452,18.306,3.763,27.994,3.763
		C237.772,220.422,257.418,214.236,273.938,203.58"/>
	<path fill="#808184" d="M220.862,223.75c-10.691,0-21.021-1.613-30.748-4.604c0.209,0.357,0.41,0.712,0.625,1.062
		c9.553,2.844,19.663,4.375,30.123,4.375c38.528,0,72.316-20.716,90.915-51.624c-0.424,0.137-0.84,0.286-1.25,0.451
		C291.968,203.588,258.724,223.75,220.862,223.75"/>
	<path fill="#808184" d="M225.008,227.909c-11.398,0-22.38-1.827-32.669-5.207c0.258,0.382,0.534,0.752,0.801,1.13
		c10.066,3.184,20.77,4.909,31.868,4.909c40.598,0,75.919-23.005,93.765-56.689c-0.307-0.017-0.61-0.034-0.92-0.037
		C300.091,205.249,265.145,227.909,225.008,227.909"/>
	<path fill="#808184" d="M229.153,232.07c-11.938,0-23.416-2.007-34.12-5.699c0.309,0.395,0.611,0.798,0.928,1.186
		c10.446,3.461,21.603,5.347,33.192,5.347c41.8,0,78.021-24.382,95.31-59.712c-0.262-0.096-0.522-0.194-0.791-0.28
		C306.497,207.915,270.591,232.07,229.153,232.07"/>
	<path fill="#808184" d="M328.659,175.308c-16.818,35.955-53.23,60.92-95.36,60.92c-12.269,0-24.054-2.118-35.013-6.007
		c0.402,0.437,0.812,0.864,1.225,1.287c10.621,3.591,21.978,5.553,33.788,5.553c42.415,0,79.076-25.11,96.053-61.281
		c-0.066-0.05-0.126-0.102-0.193-0.151C328.996,175.517,328.828,175.416,328.659,175.308"/>
	<path fill="#808184" d="M237.443,240.386c-12.253,0-24.026-2.113-34.975-5.994c0.541,0.491,1.099,0.968,1.654,1.438
		c10.487,3.488,21.685,5.389,33.32,5.389c42.221,0,78.742-24.882,95.819-60.789c-0.168-0.292-0.336-0.578-0.513-0.852
		C315.905,215.472,279.528,240.386,237.443,240.386"/>
	<path fill="#808184" d="M241.589,244.55c-11.586,0-22.736-1.891-33.164-5.374c0.772,0.552,1.559,1.091,2.357,1.607
		c9.756,2.978,20.092,4.6,30.807,4.6c41.05,0,76.723-23.517,94.367-57.824c-0.096-0.416-0.194-0.833-0.304-1.241
		C318.307,220.824,282.665,244.55,241.589,244.55"/>
	<path fill="#808184" d="M336.123,197.186c-18.409,30.837-52.034,51.522-90.389,51.522c-9.333,0-18.38-1.228-27.002-3.524
		c1.533,0.714,3.095,1.376,4.692,1.967c7.195,1.555,14.654,2.39,22.31,2.39c37.5,0,70.513-19.617,89.395-49.157L336.123,197.186z"/>
	<rect x="42.162" y="40.37" fill="none" width="403" height="307"/>
	<rect x="42.162" y="40.37" fill="none" width="403" height="307"/>
	<g opacity="0.9">
		<path fill="#808184" d="M136.07,340.89c-0.062-0.203-0.121-0.425-0.177-0.667c-0.055-0.242-0.102-0.542-0.141-0.901
			c-0.039-0.358-0.07-0.784-0.094-1.275c-0.023-0.491-0.034-1.08-0.034-1.767c0-0.686,0.011-1.275,0.034-1.767
			s0.055-0.917,0.094-1.275c0.039-0.358,0.086-0.659,0.141-0.901c0.055-0.242,0.113-0.464,0.176-0.667
			c0.39-1.185,1.025-2.079,1.907-2.679c0.881-0.6,1.977-0.901,3.287-0.901c0.655,0,1.244,0.074,1.767,0.222
			c0.522,0.148,0.991,0.355,1.404,0.62c0.413,0.266,0.772,0.578,1.076,0.936c0.305,0.359,0.55,0.749,0.737,1.17
			c0.062,0.141,0.031,0.242-0.094,0.304l-0.749,0.375c-0.14,0.047-0.241,0.016-0.304-0.094c-0.406-0.733-0.913-1.294-1.521-1.685
			c-0.608-0.39-1.389-0.585-2.34-0.585c-1.997,0-3.291,0.897-3.884,2.691c-0.047,0.156-0.094,0.339-0.141,0.55
			c-0.047,0.211-0.09,0.48-0.129,0.808c-0.039,0.327-0.066,0.725-0.082,1.193c-0.016,0.468-0.023,1.029-0.023,1.685
			s0.008,1.217,0.023,1.685c0.016,0.468,0.043,0.866,0.082,1.193s0.082,0.597,0.129,0.807s0.094,0.394,0.141,0.55
			c0.593,1.794,1.887,2.691,3.884,2.691c0.968,0,1.782-0.222,2.445-0.667c0.663-0.445,1.143-1.104,1.439-1.978
			c0.108-0.312,0.199-0.706,0.269-1.182c0.07-0.476,0.105-1.096,0.105-1.86c0-0.094-0.047-0.14-0.14-0.14h-3.604
			c-0.155,0-0.233-0.077-0.233-0.23v-0.757c0-0.153,0.078-0.23,0.233-0.23h4.864c0.158,0,0.237,0.078,0.237,0.233v0.957
			c0,0.793-0.039,1.489-0.117,2.088s-0.18,1.078-0.305,1.435c-0.375,1.183-1.009,2.077-1.899,2.683
			c-0.892,0.607-1.978,0.91-3.26,0.91c-1.313,0-2.411-0.3-3.294-0.901C137.097,342.969,136.46,342.076,136.07,340.89z"/>
		<path fill="#808184" d="M150.74,344.236c-0.156,0-0.234-0.078-0.234-0.234v-10.694c0-0.156,0.078-0.234,0.234-0.234h0.796
			c0.155,0,0.233,0.078,0.233,0.234v1.427h0.023c0.219-0.546,0.573-0.998,1.065-1.357c0.491-0.359,1.135-0.539,1.93-0.539
			c0.453,0,0.874,0.07,1.264,0.211c0.39,0.14,0.718,0.328,0.983,0.562c0.124,0.078,0.141,0.18,0.047,0.304l-0.469,0.655
			c-0.078,0.109-0.194,0.125-0.351,0.047c-0.266-0.172-0.538-0.308-0.819-0.41c-0.28-0.102-0.601-0.152-0.959-0.152
			c-0.499,0-0.921,0.102-1.264,0.304c-0.344,0.203-0.62,0.472-0.831,0.808c-0.21,0.335-0.366,0.733-0.468,1.193
			c-0.102,0.46-0.152,0.948-0.152,1.462v6.178c0,0.156-0.078,0.234-0.233,0.234H150.74z"/>
		<path fill="#808184" d="M163.61,344.47c-1.092,0-1.999-0.249-2.722-0.749c-0.723-0.499-1.236-1.232-1.543-2.2
			c-0.107-0.343-0.188-0.729-0.241-1.158s-0.08-1.002-0.08-1.72c0-0.702,0.026-1.275,0.081-1.72s0.137-0.838,0.245-1.182
			c0.312-0.936,0.824-1.653,1.54-2.153c0.716-0.499,1.58-0.749,2.591-0.749c1.012,0,1.879,0.25,2.603,0.749
			c0.724,0.5,1.241,1.217,1.552,2.153c0.125,0.359,0.21,0.749,0.257,1.17s0.07,1.022,0.07,1.802c0,0.156-0.086,0.234-0.258,0.234
			h-7.277c-0.093,0-0.14,0.055-0.14,0.164c0,0.468,0.019,0.846,0.059,1.135c0.038,0.289,0.097,0.565,0.175,0.831
			c0.266,0.749,0.667,1.299,1.205,1.65s1.189,0.526,1.954,0.526c0.733,0,1.354-0.136,1.86-0.409s0.924-0.612,1.252-1.018
			c0.094-0.125,0.202-0.141,0.327-0.047l0.539,0.491c0.108,0.094,0.116,0.203,0.022,0.328c-0.405,0.546-0.951,0.995-1.638,1.346
			S164.546,344.47,163.61,344.47z M166.558,337.848c0.094,0,0.141-0.046,0.141-0.14c0-0.341-0.016-0.639-0.047-0.895
			s-0.086-0.493-0.164-0.71c-0.22-0.697-0.588-1.221-1.104-1.569c-0.517-0.349-1.15-0.523-1.902-0.523
			c-0.735,0-1.362,0.174-1.879,0.523c-0.517,0.349-0.885,0.872-1.104,1.569c-0.078,0.217-0.133,0.454-0.164,0.71
			c-0.032,0.256-0.047,0.554-0.047,0.895c0,0.093,0.047,0.14,0.14,0.14H166.558z"/>
		<path fill="#808184" d="M175.216,334.011c-0.687,0-1.244,0.074-1.673,0.222c-0.429,0.148-0.808,0.355-1.135,0.62
			c-0.141,0.109-0.258,0.102-0.351-0.023l-0.398-0.585c-0.078-0.125-0.055-0.234,0.07-0.328c0.405-0.343,0.901-0.608,1.486-0.796
			c0.585-0.187,1.275-0.281,2.07-0.281c0.718,0,1.334,0.062,1.849,0.188s0.938,0.335,1.271,0.632
			c0.332,0.296,0.578,0.678,0.736,1.146c0.159,0.468,0.239,1.045,0.239,1.731v7.465c0,0.156-0.08,0.234-0.239,0.234h-0.763
			c-0.159,0-0.238-0.078-0.238-0.234v-1.17h-0.023c-0.219,0.468-0.62,0.858-1.205,1.17c-0.585,0.312-1.338,0.468-2.259,0.468
			c-1.123,0-2.027-0.278-2.714-0.833s-1.03-1.381-1.03-2.478c0-1.127,0.363-1.96,1.089-2.501c0.725-0.54,1.774-0.81,3.147-0.81
			h2.831c0.094,0,0.141-0.046,0.141-0.14v-1.14c0-0.449-0.044-0.837-0.129-1.163c-0.086-0.326-0.242-0.593-0.468-0.803
			c-0.227-0.209-0.527-0.36-0.901-0.453C176.247,334.057,175.778,334.011,175.216,334.011z M174.925,343.3
			c0.963,0,1.736-0.226,2.318-0.679c0.583-0.452,0.875-1.061,0.875-1.825v-1.708c0-0.094-0.047-0.141-0.141-0.141h-2.657
			c-1.119,0-1.923,0.18-2.412,0.539s-0.734,0.913-0.734,1.661c0,0.702,0.237,1.237,0.711,1.603
			C173.359,343.117,174.04,343.3,174.925,343.3z"/>
		<path fill="#808184" d="M186.729,344.307c-1.061,0-1.81-0.226-2.246-0.679c-0.438-0.452-0.655-1.232-0.655-2.34v-6.95
			c0-0.093-0.047-0.14-0.141-0.14h-1.17c-0.156,0-0.233-0.078-0.233-0.234v-0.655c0-0.156,0.077-0.234,0.233-0.234h1.17
			c0.094,0,0.141-0.047,0.141-0.141v-3.206c0-0.156,0.078-0.234,0.234-0.234h0.795c0.156,0,0.234,0.079,0.234,0.234v3.206
			c0,0.094,0.047,0.141,0.141,0.141h2.105c0.156,0,0.234,0.078,0.234,0.234v0.655c0,0.156-0.078,0.234-0.234,0.234h-2.105
			c-0.094,0-0.141,0.047-0.141,0.14v6.88c0,0.749,0.137,1.248,0.409,1.498c0.273,0.25,0.737,0.375,1.393,0.375h0.444
			c0.156,0,0.234,0.078,0.234,0.234v0.749c0,0.156-0.078,0.234-0.234,0.234H186.729z"/>
		<path fill="#808184" d="M203.647,344.236c-0.156,0-0.234-0.078-0.234-0.234v-1.357h-0.023c-0.266,0.531-0.663,0.968-1.193,1.311
			s-1.264,0.515-2.199,0.515c-1.966,0-3.229-0.889-3.791-2.667c-0.156-0.452-0.262-0.932-0.315-1.439
			c-0.056-0.507-0.082-1.073-0.082-1.697c0-0.639,0.026-1.212,0.082-1.72c0.054-0.507,0.159-0.986,0.315-1.439
			c0.562-1.779,1.825-2.668,3.791-2.668c0.936,0,1.669,0.172,2.199,0.515s0.928,0.78,1.193,1.31h0.023v-6.107
			c0-0.156,0.078-0.234,0.234-0.234h0.796c0.155,0,0.233,0.078,0.233,0.234v15.444c0,0.156-0.078,0.234-0.233,0.234H203.647z
			 M200.242,343.253c0.705,0,1.304-0.164,1.797-0.491s0.85-0.819,1.069-1.474c0.109-0.312,0.188-0.675,0.234-1.088
			c0.047-0.413,0.07-0.924,0.07-1.533s-0.023-1.123-0.07-1.544c-0.047-0.421-0.125-0.788-0.234-1.1
			c-0.22-0.655-0.576-1.146-1.069-1.474s-1.092-0.492-1.797-0.492c-0.735,0-1.343,0.168-1.82,0.503s-0.825,0.823-1.045,1.462
			c-0.125,0.359-0.207,0.765-0.246,1.217c-0.04,0.453-0.059,0.928-0.059,1.427c0,0.5,0.019,0.971,0.059,1.416
			c0.039,0.444,0.121,0.846,0.246,1.205c0.22,0.64,0.567,1.127,1.045,1.462S199.506,343.253,200.242,343.253z"/>
		<path fill="#808184" d="M212.819,344.47c-1.092,0-1.999-0.249-2.722-0.749c-0.723-0.499-1.236-1.232-1.543-2.2
			c-0.107-0.343-0.188-0.729-0.241-1.158s-0.08-1.002-0.08-1.72c0-0.702,0.026-1.275,0.081-1.72s0.137-0.838,0.245-1.182
			c0.312-0.936,0.824-1.653,1.54-2.153c0.716-0.499,1.58-0.749,2.591-0.749c1.012,0,1.879,0.25,2.603,0.749
			c0.724,0.5,1.241,1.217,1.552,2.153c0.125,0.359,0.21,0.749,0.257,1.17s0.07,1.022,0.07,1.802c0,0.156-0.086,0.234-0.258,0.234
			h-7.277c-0.093,0-0.14,0.055-0.14,0.164c0,0.468,0.019,0.846,0.059,1.135c0.038,0.289,0.097,0.565,0.175,0.831
			c0.266,0.749,0.667,1.299,1.205,1.65s1.189,0.526,1.954,0.526c0.733,0,1.354-0.136,1.86-0.409s0.924-0.612,1.252-1.018
			c0.094-0.125,0.202-0.141,0.327-0.047l0.539,0.491c0.108,0.094,0.116,0.203,0.022,0.328c-0.405,0.546-0.951,0.995-1.638,1.346
			S213.755,344.47,212.819,344.47z M215.767,337.848c0.094,0,0.141-0.046,0.141-0.14c0-0.341-0.016-0.639-0.047-0.895
			s-0.086-0.493-0.164-0.71c-0.22-0.697-0.588-1.221-1.104-1.569c-0.517-0.349-1.15-0.523-1.902-0.523
			c-0.735,0-1.362,0.174-1.879,0.523c-0.517,0.349-0.885,0.872-1.104,1.569c-0.078,0.217-0.133,0.454-0.164,0.71
			c-0.032,0.256-0.047,0.554-0.047,0.895c0,0.093,0.047,0.14,0.14,0.14H215.767z"/>
		<path fill="#808184" d="M224.425,334.011c-0.687,0-1.244,0.074-1.673,0.222c-0.429,0.148-0.808,0.355-1.135,0.62
			c-0.141,0.109-0.258,0.102-0.351-0.023l-0.398-0.585c-0.078-0.125-0.055-0.234,0.07-0.328c0.405-0.343,0.901-0.608,1.486-0.796
			c0.585-0.187,1.275-0.281,2.07-0.281c0.718,0,1.334,0.062,1.849,0.188s0.938,0.335,1.271,0.632
			c0.332,0.296,0.578,0.678,0.736,1.146c0.159,0.468,0.239,1.045,0.239,1.731v7.465c0,0.156-0.08,0.234-0.239,0.234h-0.763
			c-0.159,0-0.238-0.078-0.238-0.234v-1.17h-0.023c-0.219,0.468-0.62,0.858-1.205,1.17c-0.585,0.312-1.338,0.468-2.259,0.468
			c-1.123,0-2.027-0.278-2.714-0.833s-1.03-1.381-1.03-2.478c0-1.127,0.363-1.96,1.089-2.501c0.725-0.54,1.774-0.81,3.147-0.81
			h2.831c0.094,0,0.141-0.046,0.141-0.14v-1.14c0-0.449-0.044-0.837-0.129-1.163c-0.086-0.326-0.242-0.593-0.468-0.803
			c-0.227-0.209-0.527-0.36-0.901-0.453C225.456,334.057,224.987,334.011,224.425,334.011z M224.134,343.3
			c0.963,0,1.736-0.226,2.318-0.679c0.583-0.452,0.875-1.061,0.875-1.825v-1.708c0-0.094-0.047-0.141-0.141-0.141h-2.657
			c-1.119,0-1.923,0.18-2.412,0.539s-0.734,0.913-0.734,1.661c0,0.702,0.237,1.237,0.711,1.603
			C222.568,343.117,223.249,343.3,224.134,343.3z"/>
		<path fill="#808184" d="M235.026,344.307c-0.843,0-1.439-0.203-1.79-0.608c-0.352-0.406-0.526-1.077-0.526-2.013v-13.127
			c0-0.156,0.077-0.234,0.233-0.234h0.796c0.155,0,0.233,0.078,0.233,0.234v13.081c0,0.546,0.094,0.924,0.281,1.135
			c0.188,0.21,0.491,0.316,0.912,0.316h0.398c0.155,0,0.233,0.078,0.233,0.234v0.749c0,0.156-0.078,0.234-0.233,0.234H235.026z"/>
		<path fill="#808184" d="M242.35,344.47c-0.5,0-0.968-0.047-1.404-0.14c-0.437-0.094-0.839-0.218-1.205-0.375
			c-0.366-0.156-0.694-0.324-0.982-0.503c-0.289-0.179-0.543-0.363-0.761-0.55c-0.109-0.109-0.109-0.218,0-0.328l0.515-0.585
			c0.094-0.093,0.202-0.093,0.328,0c0.437,0.359,0.959,0.667,1.567,0.924s1.295,0.386,2.06,0.386c0.982,0,1.711-0.195,2.188-0.585
			c0.476-0.39,0.714-0.913,0.714-1.568c0-0.281-0.035-0.53-0.105-0.749s-0.203-0.41-0.397-0.574
			c-0.195-0.164-0.457-0.296-0.784-0.397c-0.328-0.102-0.749-0.183-1.264-0.246l-1.123-0.117c-1.046-0.109-1.849-0.41-2.41-0.901
			s-0.843-1.182-0.843-2.071c0-1.03,0.347-1.829,1.041-2.398s1.658-0.854,2.891-0.854c0.764,0,1.462,0.105,2.094,0.316
			c0.632,0.211,1.174,0.464,1.627,0.761c0.124,0.094,0.14,0.203,0.047,0.328l-0.422,0.562c-0.078,0.125-0.187,0.148-0.327,0.07
			c-0.359-0.218-0.815-0.417-1.369-0.597s-1.127-0.269-1.72-0.269c-0.858,0-1.506,0.175-1.942,0.526s-0.655,0.839-0.655,1.462
			c0,0.546,0.191,0.971,0.573,1.275s1.049,0.503,2.001,0.597l1.123,0.117c1.092,0.109,1.903,0.417,2.434,0.924
			c0.53,0.507,0.796,1.198,0.796,2.071c0,1.076-0.363,1.927-1.088,2.55C244.819,344.159,243.753,344.47,242.35,344.47z"/>
		<path fill="#808184" d="M249.72,342.435c0-0.156,0.078-0.234,0.234-0.234h1.006c0.156,0,0.234,0.078,0.234,0.234v1.755
			c0,0.125-0.009,0.218-0.023,0.281c-0.016,0.062-0.047,0.141-0.094,0.234l-0.913,1.802c-0.062,0.125-0.155,0.187-0.28,0.187
			c-0.109,0-0.164-0.07-0.164-0.21V342.435z"/>
		<path fill="#808184" d="M269.985,344.236c-0.141,0-0.234-0.078-0.281-0.234l-2.901-8.916h-0.023l-2.948,8.916
			c-0.047,0.156-0.141,0.234-0.281,0.234h-0.702c-0.14,0-0.233-0.078-0.28-0.234l-3.486-10.694
			c-0.047-0.156,0.007-0.234,0.163-0.234h0.843c0.141,0,0.241,0.078,0.304,0.234l2.855,8.916h0.023l2.901-8.916
			c0.047-0.156,0.141-0.234,0.28-0.234h0.679c0.141,0,0.234,0.078,0.281,0.234l2.948,8.916h0.023l2.784-8.916
			c0.062-0.156,0.164-0.234,0.305-0.234h0.843c0.155,0,0.21,0.078,0.163,0.234l-3.486,10.694c-0.047,0.156-0.141,0.234-0.281,0.234
			H269.985z"/>
		<path fill="#808184" d="M281.38,344.47c-1.092,0-1.999-0.249-2.722-0.749c-0.723-0.499-1.236-1.232-1.543-2.2
			c-0.107-0.343-0.188-0.729-0.241-1.158s-0.08-1.002-0.08-1.72c0-0.702,0.026-1.275,0.081-1.72s0.137-0.838,0.245-1.182
			c0.312-0.936,0.824-1.653,1.54-2.153c0.716-0.499,1.58-0.749,2.591-0.749c1.012,0,1.879,0.25,2.603,0.749
			c0.724,0.5,1.241,1.217,1.552,2.153c0.125,0.359,0.21,0.749,0.257,1.17s0.07,1.022,0.07,1.802c0,0.156-0.086,0.234-0.258,0.234
			h-7.277c-0.093,0-0.14,0.055-0.14,0.164c0,0.468,0.019,0.846,0.059,1.135c0.038,0.289,0.097,0.565,0.175,0.831
			c0.266,0.749,0.667,1.299,1.205,1.65s1.189,0.526,1.954,0.526c0.733,0,1.354-0.136,1.86-0.409s0.924-0.612,1.252-1.018
			c0.094-0.125,0.202-0.141,0.327-0.047l0.539,0.491c0.108,0.094,0.116,0.203,0.022,0.328c-0.405,0.546-0.951,0.995-1.638,1.346
			S282.317,344.47,281.38,344.47z M284.329,337.848c0.094,0,0.141-0.046,0.141-0.14c0-0.341-0.016-0.639-0.047-0.895
			s-0.086-0.493-0.164-0.71c-0.22-0.697-0.588-1.221-1.104-1.569c-0.517-0.349-1.15-0.523-1.902-0.523
			c-0.735,0-1.362,0.174-1.879,0.523c-0.517,0.349-0.885,0.872-1.104,1.569c-0.078,0.217-0.133,0.454-0.164,0.71
			c-0.032,0.256-0.047,0.554-0.047,0.895c0,0.093,0.047,0.14,0.14,0.14H284.329z"/>
		<path fill="#808184" d="M291.583,344.307c-0.843,0-1.439-0.203-1.79-0.608c-0.352-0.406-0.526-1.077-0.526-2.013v-13.127
			c0-0.156,0.077-0.234,0.233-0.234h0.796c0.155,0,0.233,0.078,0.233,0.234v13.081c0,0.546,0.094,0.924,0.281,1.135
			c0.188,0.21,0.491,0.316,0.912,0.316h0.398c0.155,0,0.233,0.078,0.233,0.234v0.749c0,0.156-0.078,0.234-0.233,0.234H291.583z"/>
		<path fill="#808184" d="M297.691,344.307c-0.843,0-1.439-0.203-1.79-0.608c-0.352-0.406-0.526-1.077-0.526-2.013v-13.127
			c0-0.156,0.077-0.234,0.233-0.234h0.796c0.155,0,0.233,0.078,0.233,0.234v13.081c0,0.546,0.094,0.924,0.281,1.135
			c0.188,0.21,0.491,0.316,0.912,0.316h0.398c0.155,0,0.233,0.078,0.233,0.234v0.749c0,0.156-0.078,0.234-0.233,0.234H297.691z"/>
		<path fill="#808184" d="M314.375,344.236c-0.156,0-0.234-0.078-0.234-0.234v-1.357h-0.023c-0.266,0.531-0.663,0.968-1.193,1.311
			s-1.264,0.515-2.199,0.515c-1.966,0-3.229-0.889-3.791-2.667c-0.156-0.452-0.262-0.932-0.315-1.439
			c-0.056-0.507-0.082-1.073-0.082-1.697c0-0.639,0.026-1.212,0.082-1.72c0.054-0.507,0.159-0.986,0.315-1.439
			c0.562-1.779,1.825-2.668,3.791-2.668c0.936,0,1.669,0.172,2.199,0.515s0.928,0.78,1.193,1.31h0.023v-6.107
			c0-0.156,0.078-0.234,0.234-0.234h0.796c0.155,0,0.233,0.078,0.233,0.234v15.444c0,0.156-0.078,0.234-0.233,0.234H314.375z
			 M310.969,343.253c0.705,0,1.304-0.164,1.797-0.491s0.85-0.819,1.069-1.474c0.109-0.312,0.188-0.675,0.234-1.088
			c0.047-0.413,0.07-0.924,0.07-1.533s-0.023-1.123-0.07-1.544c-0.047-0.421-0.125-0.788-0.234-1.1
			c-0.22-0.655-0.576-1.146-1.069-1.474s-1.092-0.492-1.797-0.492c-0.735,0-1.343,0.168-1.82,0.503s-0.825,0.823-1.045,1.462
			c-0.125,0.359-0.207,0.765-0.246,1.217c-0.04,0.453-0.059,0.928-0.059,1.427c0,0.5,0.019,0.971,0.059,1.416
			c0.039,0.444,0.121,0.846,0.246,1.205c0.22,0.64,0.567,1.127,1.045,1.462S310.234,343.253,310.969,343.253z"/>
		<path fill="#808184" d="M323.488,344.47c-1.026,0-1.898-0.249-2.614-0.749c-0.716-0.499-1.229-1.217-1.54-2.153
			c-0.124-0.375-0.218-0.784-0.28-1.229c-0.062-0.445-0.093-1.01-0.093-1.697c0-0.67,0.031-1.229,0.093-1.673
			c0.062-0.445,0.156-0.854,0.28-1.229c0.312-0.936,0.824-1.653,1.54-2.153c0.716-0.499,1.588-0.749,2.614-0.749
			c1.027,0,1.902,0.25,2.626,0.749c0.724,0.5,1.241,1.217,1.553,2.153c0.124,0.375,0.217,0.784,0.279,1.229
			c0.062,0.444,0.094,1.002,0.094,1.673c0,0.687-0.031,1.252-0.094,1.697c-0.062,0.444-0.155,0.854-0.279,1.229
			c-0.312,0.936-0.829,1.654-1.553,2.153C325.39,344.221,324.515,344.47,323.488,344.47z M323.488,343.253
			c0.736,0,1.362-0.179,1.879-0.538s0.885-0.874,1.104-1.544c0.11-0.312,0.188-0.659,0.235-1.042c0.047-0.382,0.07-0.877,0.07-1.486
			c0-0.592-0.023-1.08-0.07-1.462c-0.047-0.382-0.125-0.729-0.235-1.041c-0.219-0.671-0.587-1.186-1.104-1.544
			s-1.143-0.539-1.879-0.539c-0.72,0-1.339,0.18-1.855,0.539s-0.884,0.874-1.104,1.544c-0.109,0.312-0.188,0.659-0.234,1.041
			c-0.047,0.382-0.07,0.87-0.07,1.462c0,0.608,0.023,1.104,0.07,1.486c0.046,0.383,0.125,0.729,0.234,1.042
			c0.22,0.671,0.587,1.186,1.104,1.544S322.768,343.253,323.488,343.253z"/>
		<path fill="#808184" d="M339.083,344.236c-0.156,0-0.233-0.078-0.233-0.234v-6.599c0-2.23-0.976-3.346-2.926-3.346
			c-0.857,0-1.579,0.273-2.164,0.819s-0.878,1.31-0.878,2.293v6.833c0,0.156-0.078,0.234-0.233,0.234h-0.796
			c-0.156,0-0.234-0.078-0.234-0.234v-10.694c0-0.156,0.078-0.234,0.234-0.234h0.796c0.155,0,0.233,0.078,0.233,0.234v1.333h0.023
			c0.281-0.545,0.702-0.982,1.264-1.31s1.24-0.492,2.036-0.492c1.248,0,2.211,0.367,2.89,1.1s1.019,1.786,1.019,3.159v6.903
			c0,0.156-0.079,0.234-0.234,0.234H339.083z"/>
		<path fill="#808184" d="M348.116,344.47c-1.092,0-1.999-0.249-2.722-0.749c-0.723-0.499-1.236-1.232-1.543-2.2
			c-0.107-0.343-0.188-0.729-0.241-1.158s-0.08-1.002-0.08-1.72c0-0.702,0.026-1.275,0.081-1.72s0.137-0.838,0.245-1.182
			c0.312-0.936,0.824-1.653,1.54-2.153c0.716-0.499,1.58-0.749,2.591-0.749c1.012,0,1.879,0.25,2.603,0.749
			c0.724,0.5,1.241,1.217,1.552,2.153c0.125,0.359,0.21,0.749,0.257,1.17s0.07,1.022,0.07,1.802c0,0.156-0.086,0.234-0.258,0.234
			h-7.277c-0.093,0-0.14,0.055-0.14,0.164c0,0.468,0.019,0.846,0.059,1.135c0.038,0.289,0.097,0.565,0.175,0.831
			c0.266,0.749,0.667,1.299,1.205,1.65s1.189,0.526,1.954,0.526c0.733,0,1.354-0.136,1.86-0.409s0.924-0.612,1.252-1.018
			c0.094-0.125,0.202-0.141,0.327-0.047l0.539,0.491c0.108,0.094,0.116,0.203,0.022,0.328c-0.405,0.546-0.951,0.995-1.638,1.346
			S349.052,344.47,348.116,344.47z M351.064,337.848c0.094,0,0.141-0.046,0.141-0.14c0-0.341-0.016-0.639-0.047-0.895
			s-0.086-0.493-0.164-0.71c-0.22-0.697-0.588-1.221-1.104-1.569c-0.517-0.349-1.15-0.523-1.902-0.523
			c-0.735,0-1.362,0.174-1.879,0.523c-0.517,0.349-0.885,0.872-1.104,1.569c-0.078,0.217-0.133,0.454-0.164,0.71
			c-0.032,0.256-0.047,0.554-0.047,0.895c0,0.093,0.047,0.14,0.14,0.14H351.064z"/>
	</g>
</g>
</svg>
